<?xml version="1.0" encoding="UTF-8"?>
<svg width="102px" height="120px" viewBox="0 0 102 120" version="1.1" xmlns="http://www.w3.org/2000/svg" xmlns:xlink="http://www.w3.org/1999/xlink">
    <!-- Generator: Sketch 43.1 (39012) - http://www.bohemiancoding.com/sketch -->
    <title>android-plain</title>
    <desc>Created with Sketch.</desc>
    <defs></defs>
    <g id="Page-1" stroke="none" stroke-width="1" fill="none" fill-rule="evenodd">
        <g id="Artboard" transform="translate(-672.000000, -210.000000)" fill-rule="nonzero" fill="#F4B400">
            <g id="android-plain" transform="translate(672.000000, 210.000000)">
                <path d="M8.005,39.003 C3.952,39.001 0.667,42.294 0.666,46.344 L0.671,77.08 C0.672,81.144 3.959,84.424 8.013,84.423 C12.069,84.423 15.355,81.143 15.351,77.081 L15.351,46.34 C15.349,42.291 12.06,39.001 8.005,39.003 L8.005,39.003 Z M67.198,11.401 L72.321,2.046 C72.594,1.557 72.415,0.935 71.92,0.658 C71.42,0.393 70.803,0.573 70.538,1.065 L65.363,10.518 C61.009,8.58 56.136,7.494 50.98,7.499 C45.838,7.494 40.967,8.577 36.631,10.504 L31.45,1.075 C31.181,0.578 30.561,0.398 30.072,0.669 C29.574,0.938 29.391,1.561 29.668,2.049 L34.793,11.398 C24.723,16.591 17.919,26.481 17.925,37.836 L84.043,37.828 C84.045,26.477 77.253,16.607 67.198,11.401 L67.198,11.401 Z M35.942,25.858 C34.421,25.855 33.179,24.617 33.179,23.087 C33.179,21.564 34.417,20.312 35.945,20.313 C37.478,20.312 38.718,21.564 38.72,23.087 C38.72,24.615 37.477,25.857 35.942,25.858 L35.942,25.858 Z M66.048,25.853 C64.52,25.855 63.276,24.616 63.276,23.082 C63.282,21.562 64.518,20.31 66.049,20.304 C67.57,20.309 68.817,21.562 68.816,23.083 C68.819,24.613 67.576,25.854 66.048,25.853 L66.048,25.853 Z M18.195,40.39 L18.206,88.025 C18.203,92.358 21.708,95.856 26.038,95.856 L31.371,95.858 L31.377,112.122 C31.376,116.172 34.668,119.464 38.712,119.464 C42.768,119.464 46.054,116.169 46.055,112.117 L46.051,95.857 L55.96,95.854 L55.964,112.117 C55.964,116.164 59.257,119.463 63.302,119.455 C67.358,119.458 70.646,116.163 70.645,112.111 L70.64,95.852 L75.992,95.848 C80.312,95.85 83.826,92.348 83.828,88.014 L83.819,40.379 L18.195,40.39 L18.195,40.39 Z M101.329,46.333 C101.328,42.278 98.043,38.992 93.988,38.994 C89.935,38.99 86.651,42.281 86.651,46.336 L86.657,77.074 C86.656,81.132 89.94,84.412 93.996,84.413 C98.05,84.412 101.333,81.132 101.334,77.07 L101.329,46.333 Z" id="Shape"></path>
            </g>
        </g>
    </g>
</svg>