<?xml version="1.0" encoding="UTF-8"?>
<svg width="126px" height="50px" viewBox="0 0 126 50" version="1.1" xmlns="http://www.w3.org/2000/svg" xmlns:xlink="http://www.w3.org/1999/xlink">
    <!-- Generator: Sketch 43.1 (39012) - http://www.bohemiancoding.com/sketch -->
    <title>babel-plain</title>
    <desc>Created with Sketch.</desc>
    <defs></defs>
    <g id="Page-1" stroke="none" stroke-width="1" fill="none" fill-rule="evenodd">
        <g id="Artboard" transform="translate(-481.000000, -270.000000)" fill-rule="nonzero" fill="#F4B400">
            <g id="babel-plain" transform="translate(481.000000, 270.000000)">
                <path d="M89.18,11.5 L89.18,11.65 L89.49,11.65 C89.4928185,11.5022966 89.5233475,11.3564358 89.58,11.22 L89.58,10.95 C89.45,10.95 89.32,11.16 89.2,11.53 L89.18,11.5 Z M86.24,4.42 L86.24,4.15 L85.8,4.15 L85.8,4.42 L86.24,4.42 Z M77.7,20.42 C77.0563425,19.3180542 76.2657595,18.3087993 75.35,17.42 C75.35,17.1 75.85,16.63 76.94,16 L80,13.34 C80.8466712,12.0518413 81.2921332,10.5414466 81.28,9 L81.28,8.54 C81.16,7.16 80.16,6.05 78.28,5.2 C77.16,4.44666667 75.16,4.03 72.28,3.95 C69.0397363,4.37378669 65.8733026,5.24194811 62.87,6.53 C61.7033612,7.35999657 60.4914922,8.12450896 59.24,8.82 L59.24,9.05 C59.3706555,9.02489493 59.4938127,8.97015841 59.6,8.89 C59.6636858,8.87435878 59.7310221,8.88936634 59.7820383,8.93057167 C59.8330544,8.97177699 59.8618926,9.03444894 59.86,9.1 L60,9 L60.11,9 L60.11,9.1 C59.3575294,9.8700774 58.5108327,10.5420589 57.59,11.1 L57.72,11.34 L57.61,11.34 L57.33,11.24 C57.33,11.32 57.22,11.38 56.99,11.4 L56.99,11.5 L57.26,11.84 C57.1252633,11.8365886 56.9926065,11.8059755 56.87,11.75 C56.4198949,11.8128859 56.007807,12.0366922 55.71,12.38 L55.87,11.69 C56.3835608,9.54790624 56.7708941,7.37750416 57.03,5.19 L57,5 C56.5864706,4.72589407 56.2186403,4.38843509 55.91,4 C55.9207979,3.83684513 55.9207979,3.67315487 55.91,3.51 L55.91,3.41 L55.8,3.41 C54.5666667,5.25666667 52.1966667,8.40666667 48.69,12.86 C46.0233333,16.0266667 44.6433333,17.7866667 44.55,18.14 C43.46,19.27 42.94,19.95 42.99,20.14 C42.7,20.33 42.58,20.51 42.63,20.72 C42.5968539,20.7324193 42.5599156,20.7295714 42.5290649,20.7122179 C42.4982143,20.6948644 42.4765988,20.6647759 42.47,20.63 C42.0085706,21.3816429 41.2548576,21.9070678 40.39,22.08 L39.39,22.3 C39.3264159,22.3094822 39.2697023,22.3451429 39.2336049,22.398339 C39.1975075,22.4515352 39.1853214,22.517411 39.2,22.58 L39.2,22.7 L39.56,22.62 L39.56,22.72 L38.74,23.04 L37.29,23.38 L36.53,23.38 C36.42,23.49 37.14,23.38 36.86,23.44 L35.86,23.66 C35.28,23.79 34.97,23.74 34.86,23.51 L34.75,23.51 C34.7680028,23.5889872 34.7680028,23.6710128 34.75,23.75 L34.69,23.52 L33.93,23.7 C33.9766667,23.4266667 33,22.1933333 31,20 C31,19.57 31.67,18.95 33.12,18.14 L37.2,14.55 C38.1133333,13.3766667 38.6566667,11.4933333 38.83,8.9 L38.77,8.29 C38.61,6.46 37.29,4.99 34.77,3.85 C33.3,2.85 30.65,2.32 26.83,2.24 C22.567754,2.79803026 18.4002099,3.92821171 14.44,5.6 C12.9076768,6.69406739 11.311514,7.6958432 9.66,8.6 L9.66,8.92 C9.83147749,8.89075563 9.99496342,8.82604245 10.14,8.73 C10.2209608,8.7082667 10.3074239,8.72537039 10.3740126,8.77629119 C10.4406014,8.82721199 10.4797616,8.90617321 10.48,8.99 L10.8,8.81 L11,8.81 L11,9 C9.98899636,9.99067074 8.86844052,10.8629597 7.66,11.6 L7.84,11.88 L7.7,11.88 L7.36,11.76 C7.36,11.85 7.21,11.92 6.88,11.95 L6.88,12.12 L7.25,12.53 C7.07851924,12.5284882 6.90887139,12.4945586 6.75,12.43 C5.84879621,12.6204726 5.07500615,13.1935153 4.63,14 L4.81,14.28 C5.11795614,13.9443082 5.47541799,13.6576642 5.87,13.43 L5.87,13.89 C5.70039319,13.9256886 5.5380833,13.9899362 5.39,14.08 L5.77,14.66 C6.4934454,13.8946262 7.3097816,13.2227446 8.2,12.66 C8.64,12.77 8.87,12.91 8.88,13.06 L9.22,13.06 C11.3832521,11.407486 13.7926035,10.1049515 16.36,9.2 L16.36,9.52 C15.92,10.1866667 15.6233333,10.52 15.47,10.52 C15.4807291,10.7363893 15.5614443,10.9434414 15.7,11.11 C15.74,11.51 14.67,14.21 12.49,19.21 C7.61,30.7366667 3.49,39.28 0.13,44.84 C0.161123402,45.0034002 0.229569151,45.1574031 0.33,45.29 C0.88863238,45.1986325 1.42281437,44.9944865 1.9,44.69 L2.08,44.69 L2.08,45.01 L2.39,45.01 L2.71,44.83 C2.71,44.92 2.82,44.97 3.04,44.95 L3.04,45.27 C2.99868006,45.7817385 2.81892902,46.2725972 2.52,46.69 C2.04260237,47.3942012 1.6907387,48.1757446 1.48,49 L1.48,49.15 L1.79,49.15 C3.00791013,47.8276836 4.03761315,46.3436999 4.85,44.74 C7.95383719,43.9119945 10.968432,42.7798466 13.85,41.36 C15.5591813,41.3123557 17.2130056,40.7436355 18.59,39.73 L18.59,39.56 L17.81,39.79 L17.63,39.79 L17.63,39.62 C18.7511232,39.5433315 19.8378219,39.2005244 20.8,38.62 C23.7733333,36.3266667 26.02,34.7033333 27.54,33.75 C30.66,31.4566667 32.6866667,29.2233333 33.62,27.05 L34.14,26.93 C34.3898102,26.943777 34.6401898,26.943777 34.89,26.93 C34.89,26.85 34.89,26.8 34.99,26.78 C35.69,26.71 35.35,26.78 35.8,26.72 L36.97,26.45 L37.17,26.45 L37.08,26.51 C37.2220356,26.5372769 37.3679644,26.5372769 37.51,26.51 L37.59,26.85 L32.25,35.34 L31,36.71 L30.42,38.65 L30.53,38.65 L31.11,38.41 L30.92,39.16 L30.98,39.38 L31.14,39.58 C31.07,39.58 31.04,39.65 31.06,39.73 L31.06,39.85 L31.3,39.79 C31.6533333,39.4833333 31.8033333,39.2033333 31.75,38.95 C31.997945,39.013874 32.2551037,39.034176 32.51,39.01 L32.51,39.13 C32.28,39.19 32.16,39.37 32.14,39.69 L32.14,39.81 L32.27,39.81 C34.21,37.69 38.96,30.46 42.77,25.54 C42.65,25.0066667 44.65,24.2666667 48.77,23.32 L48.9,23.32 C49.0466667,23.9866667 48.7133333,25.5433333 47.9,27.99 C47.5815815,28.7772834 47.3437014,29.5947866 47.19,30.43 C46.7875982,31.4736415 46.4796959,32.5512996 46.27,33.65 L44.9,38.34 C43.9472307,40.8218944 43.2241997,43.3859763 42.74,46 C42.8719726,45.9730612 43.0080274,45.9730612 43.14,46 L43.35,45.82 C43.3565988,45.8547759 43.3782143,45.8848644 43.4090649,45.9022179 C43.4399156,45.9195714 43.4768539,45.9224193 43.51,45.91 L43.43,45.57 L44.06,45.57 C44.25,45.57 44.4,45.29 44.54,44.86 C44.54,44.22 44.64,43.86 44.93,43.8 C45.0775578,43.0009514 45.3192414,42.2221931 45.65,41.48 C45.8036194,40.5812752 46.0760041,39.7069537 46.46,38.88 C47.01,36.88 47.46,35.88 47.67,35.82 L47.73,36.06 L47.33,37.06 C46.8095079,39.5599097 46.100823,42.0169068 45.21,44.41 L45.42,45.3 L45.55,45.3 C47.2833333,41.5733333 49.7766667,34.1933333 53.03,23.16 C53.1258424,22.2661024 53.632225,21.4677181 54.4,21 L54.21,20.8 L54.21,20.7 C54.5148015,20.6529097 54.7920518,20.4965121 54.99,20.26 C54.99,20.18 54.65,20.05 53.99,19.89 L55.61,12.89 C55.7890786,12.6972279 55.9985165,12.5350824 56.23,12.41 L56.23,12.76 C56.0993445,12.7851051 55.9761873,12.8398416 55.87,12.92 L56.18,13.36 C56.7236616,12.7794356 57.3346459,12.265806 58,11.83 C58.34,11.92 58.5,12.04 58.52,12.15 L58.76,12.15 C60.40664,10.9019379 62.238926,9.91999456 64.19,9.24 L64.19,9.47 C63.8633333,9.96333333 63.64,10.2133333 63.52,10.22 C63.5331859,10.3798593 63.5846331,10.534201 63.67,10.67 C63.027957,12.7828384 62.2221827,14.842411 61.26,16.83 C58.5396351,23.5440484 55.3863398,30.0744428 51.82,36.38 C51.8509117,36.5044789 51.9089639,36.6205833 51.99,36.72 C52.4115863,36.6523853 52.813883,36.4955578 53.17,36.26 L53.28,36.26 L53.28,36.49 L53.54,36.49 L53.77,36.37 C53.77,36.4366667 53.8533333,36.4633333 54.02,36.45 L54.02,36.7 C53.9852973,37.083078 53.847026,37.4494968 53.62,37.76 C53.2234549,38.3070627 52.9349606,38.9247798 52.77,39.58 L52.77,39.7 L53.01,39.7 C53.9349033,38.6962915 54.7157164,37.5688243 55.33,36.35 C57.6740914,35.7184885 59.9514167,34.8611425 62.13,33.79 C63.4350007,33.7561428 64.6983241,33.3234021 65.75,32.55 L65.75,32.43 L65.14,32.61 L65.01,32.61 L65.01,32.49 C65.8598327,32.4277529 66.6825786,32.1637886 67.41,31.72 C69.66,29.99 71.41,28.72 72.53,28.02 C76.13,25.4 77.8,22.89 77.6,20.47 L77.7,20.42 Z M77.08,20.58 L77.16,21.52 C77.05,21.75 76.93,21.87 76.82,21.88 L76.68,20.28 C76.94,20.37 77.07,20.47 77.08,20.58 L77.08,20.58 Z M6.52,13 L6.36,13 L6.36,12.71 L7,12.66 L7,12.81 C6.83192057,12.8402906 6.67191045,12.9049756 6.53,13 L6.52,13 Z M3.38,44.4 C3.07047306,44.2445934 2.72589366,44.1722317 2.38,44.19 L2.38,43.73 C2.38,43.55 2.46,43.43 2.69,43.39 C2.92,43.35 3.02,43.52 3.03,43.82 C3.29295179,43.4581231 3.59107126,43.1231574 3.92,42.82 L4.26,42.96 C4.15,43.89 3.86,44.37 3.4,44.4 L3.38,44.4 Z M36.93,9.3 C36.77,9.3 36.45,8.82 36,7.85 L36,7.56 C36.3,7.56 36.61,8.02 36.93,9.01 L36.93,9.3 Z M36.48,5.82 L36.35,6.13 L31.79,4.23 C34.83,4.33 36.3933333,4.86 36.48,5.82 L36.48,5.82 Z M17.25,22.35 L16.61,22.41 L16.61,22.12 L17.25,22.06 L17.25,22.35 Z M16.73,12.43 L16.89,12.43 L16.89,12.89 C16.74,12.89 16.55,13.12 16.3,13.55 L16.3,13.23 C16.59,12.89 16.74,12.62 16.72,12.44 L16.73,12.43 Z M15.38,15.62 L15.44,16.23 L15.28,16.23 L15.22,15.62 L15.38,15.62 Z M14.67,16.76 L14.98,16.76 C14.98,17.26 14.81,17.53 14.56,17.55 L14.4,17.55 C14.5613516,17.3242104 14.6550098,17.0571111 14.67,16.78 L14.67,16.76 Z M14.14,18.34 L14.32,18.34 L14.32,18.49 L14.03,18.97 L13.72,18.97 L13.72,18.82 C13.8471183,18.82973 13.9712609,18.7782809 14.0542304,18.6814832 C14.1371999,18.5846854 14.1690571,18.4541347 14.14,18.33 L14.14,18.34 Z M13.62,19.77 L13.53,20.53 L13.37,20.53 L13.3,19.78 L13.62,19.78 L13.62,19.77 Z M8.38,34.62 C8.17,35.62 7.95,36.19 7.72,36.21 L7.72,36.06 C7.68618364,35.4977225 7.93810225,34.9562855 8.39,34.62 L8.38,34.62 Z M7.38,36.7 L7.38,36.85 C7.40291517,36.9344593 7.38347431,37.0247866 7.32784181,37.0923403 C7.2722093,37.1598941 7.18728609,37.1962946 7.1,37.19 L7.1,37 C7.1,36.82 7.19333333,36.7066667 7.38,36.66 L7.38,36.7 Z M7.15,41 L7.63,41 L7.63,41.17 C7.45852251,41.1992444 7.29503658,41.2639575 7.15,41.36 L6.84,41.36 C6.84,41.2 6.92,41.08 7.12,41.02 L7.15,41 Z M20.94,36.74 C19.2461072,37.4739889 17.6367175,38.3893293 16.14,39.47 C13.1933333,40.49 11.7333333,41.13 11.76,41.39 C9.99361653,42.0445626 8.26729718,42.8025404 6.59,43.66 C6.29317006,43.6555491 6.00171708,43.5801142 5.74,43.44 C5.701811,42.9050494 5.97927985,42.3970079 6.45,42.14 C6.89726126,42.1020384 7.34701604,42.1741365 7.76,42.35 C8.57213298,41.9859956 9.42006726,41.7078196 10.29,41.52 L10.29,41.2 L9.29,41.28 C10.1732358,40.7446255 11.1163832,40.3150068 12.1,40 L12.58,40 L12.58,40.15 C11.75,40.22 11.29,40.47 11.19,40.9 C11.19,41.1 11.32,41.18 11.53,41.16 C12.15,40.77 12.46,40.54 12.45,40.47 C13.63,40.2433333 16.9,38.5333333 22.26,35.34 L22.26,35.63 C22.26,35.77 21.81,36.16 20.89,36.83 L20.94,36.74 Z M12.72,39.44 C13.4764976,39.3794016 14.1861511,39.0494127 14.72,38.51 C14.94,38.51 15.06,38.58 15.07,38.77 C14.2888552,38.9775168 13.5484197,39.3156152 12.88,39.77 L12.72,39.77 L12.72,39.46 L12.72,39.44 Z M26,29.27 L21.89,32.53 C20.316543,33.6458577 18.665711,34.6483873 16.95,35.53 C12.0833333,38.1966667 9.06,39.5866667 7.88,39.7 L7.7,39.7 C7.84666667,39.1533333 10.0133333,34.7166667 14.2,26.39 C17.2019136,25.9068719 20.1292479,25.0397625 22.91,23.81 L23.91,23.73 C25.5025629,23.4455635 27.1402508,23.8650159 28.4,24.88 L28.46,25.49 C27.72,27.62 26.9,28.87 26.02,29.24 L26,29.27 Z M18,24.75 L18.66,24.69 L18.66,24.84 L18,24.9 L18,24.75 Z M27.29,23.18 L27.77,23.18 C28.22,23.39 28.45,23.58 28.47,23.75 L28.47,23.9 C27.9818282,23.9064494 27.5276544,23.6507382 27.28,23.23 L27.29,23.18 Z M28.6,15.7 C27.5062904,16.7079037 26.2980181,17.5839011 25,18.31 C24.37,18.37 22,19.31 17.93,21.07 C17.7290904,20.9946322 17.5125535,20.9705725 17.3,21 L17.3,20.71 C17.3221344,19.9051132 17.5986991,19.1279312 18.09,18.49 C18.41,16.81 18.75,15.85 19.09,15.62 L22.49,7.97 C22.45,7.49666667 23.1766667,7.13333333 24.67,6.88 L25.15,6.88 L25.15,7.32 C26.61,7.1 27.53,6.97 27.88,6.94 C30.58,6.71 31.99,7.26 32.1,8.57 L32.41,8.57 L32.34,7.8 L32.68,7.8 C33.3305163,8.03858144 33.8233923,8.57999825 34,9.25 C33.9687217,9.84573856 33.7237496,10.4102396 33.31,10.84 C33.1,10.84 32.98,10.71 32.97,10.41 L32.63,10.41 L32.56,11.34 C31.1933333,13.3866667 30.1933333,14.44 29.56,14.5 C29,15.27 28.66,15.66 28.56,15.66 L28.6,15.7 Z M30.69,21.06 C30.4984729,20.9069209 30.2646506,20.8161839 30.02,20.8 L30.02,20.34 L30.33,20.34 L31.01,20.74 C31.0329152,20.8244593 31.0134743,20.9147866 30.9578418,20.9823403 C30.9022093,21.0498941 30.8172861,21.0862946 30.73,21.08 L30.69,21.06 Z M32.85,23.62 C33.15,23.74 33.33,23.87 33.36,23.99 L33.21,23.99 L33.21,23.99 L33.12,23.99 L32.9,24.17 L32.84,23.55 L32.85,23.62 Z M33,24.9 L33,24.78 L33.39,24.69 L33.39,24.81 L33,24.9 Z M33.94,26 C34.34,25.93 34.54,25.91 35.28,25.74 L35.28,25.86 L33.86,26.19 C33.8632195,26.1267076 33.8632195,26.0632924 33.86,26 L33.94,26 Z M35.32,26.59 C34.8404193,26.6002304 34.3637494,26.667367 33.9,26.79 L33.9,26.67 L35.09,26.29 L35.66,26.16 L35.72,26.38 C35.46,26.44 35.65,26.44 35.35,26.59 L35.32,26.59 Z M36.58,26.29 C36.5123304,26.3081315 36.4402073,26.2981877 36.3799688,26.262421 C36.3197302,26.2266544 36.2764744,26.168092 36.26,26.1 L36.62,26.02 C36.6853,25.9943276 36.7589292,26.0013429 36.8182062,26.038885 C36.8774831,26.0764271 36.9152973,26.1399925 36.92,26.21 L36.58,26.29 L36.58,26.29 Z M40,22.57 L40,22.45 L40.59,22.31 L40.65,22.53 L40.03,22.53 L40,22.57 Z M43.64,44.91 C43.6650566,44.7879393 43.6650566,44.6620607 43.64,44.54 L43.77,44.54 C43.8309823,44.5143827 43.90047,44.5189938 43.9575326,44.5524443 C44.0145953,44.5858949 44.0525632,44.644275 44.06,44.71 L44.06,44.83 L43.58,44.94 L43.64,44.91 Z M46.19,23.53 L45.93,23.53 C45.5860094,23.67326 45.2316627,23.7902613 44.87,23.88 L44.63,23.94 C44.5663463,23.9615458 44.4965751,23.9554174 44.4376522,23.9231048 C44.3787293,23.8907922 44.3360528,23.8352558 44.32,23.77 L46,23.34 L46.56,23.08 L46.75,23.29 C46.5394004,23.319366 46.3397732,23.4019704 46.17,23.53 L46.19,23.53 Z M47.5,23.11 L47.5,22.99 C47.6238793,22.9506134 47.7345684,22.8779737 47.82,22.78 L49,22.51 L49,22.63 C48.4772084,22.7459392 47.9653304,22.9065283 47.47,23.11 L47.5,23.11 Z M47.69,20.66 C47.5636917,20.7064109 47.4480496,20.7778369 47.35,20.87 C47.35,20.79 47.16,20.79 46.85,20.87 C46.79,20.64 47.69,20.31 49.54,19.87 L49.8,19.81 L49.86,20.03 C48.56,20.41 47.86,20.63 47.69,20.65 L47.69,20.66 Z M50.95,17.14 C50.82,18.62 50.3,19.46 49.38,19.67 L49.38,19.55 L48.56,19.87 L48.2,19.95 C48.0366027,19.9966857 47.8633973,19.9966857 47.7,19.95 L47.63,19.62 C48.7148188,17.9118528 49.9037327,16.2720867 51.19,14.71 L51.47,14.71 C51.5059495,15.5337859 51.3412257,16.3539732 50.99,17.1 L50.95,17.14 Z M56.72,12.2 L56.6,12.2 L56.6,11.97 L57.08,11.97 L57.08,12.09 C56.9542321,12.1248433 56.8332993,12.1752319 56.72,12.24 L56.72,12.2 Z M54.34,36.06 C54.1091824,35.9386826 53.8505686,35.8800634 53.59,35.89 L53.59,35.54 C53.59,35.42 53.6633333,35.3366667 53.81,35.29 C53.97,35.29 54.06,35.38 54.08,35.63 C54.2703051,35.3463638 54.4953907,35.0876833 54.75,34.86 L55,35 C54.91,35.71 54.69,36.08 54.36,36.11 L54.34,36.06 Z M79.81,9.42 C79.69,9.42 79.46,9.06 79.09,8.3 L79.09,8.07 C79.32,8.07 79.57,8.41 79.81,9.16 L79.81,9.42 L79.81,9.42 Z M79.47,6.76 L79.36,7 L75.91,5.56 C78.21,5.63 79.4,6.04 79.47,6.76 L79.47,6.76 Z M64.86,19.3 L64.38,19.3 L64.38,19.07 L64.86,19.07 L64.86,19.3 Z M64.46,11.76 L64.59,11.76 L64.59,12.11 C64.47,12.11 64.32,12.2766667 64.14,12.61 L64.14,12.38 C64.3086508,12.2130097 64.4175982,11.9951149 64.45,11.76 L64.46,11.76 Z M63.46,14.18 L63.46,14.64 L63.33,14.64 L63.33,14.18 L63.46,14.18 Z M62.91,15.05 L63.15,15.05 C63.15,15.4433333 63.0466667,15.6466667 62.84,15.66 L62.7,15.66 C62.8182148,15.4773447 62.8871178,15.2671906 62.9,15.05 L62.91,15.05 Z M62.52,16.24 L62.63,16.24 L62.63,16.36 L62.42,16.73 L62.18,16.73 L62.18,16.61 C62.43,16.61 62.54,16.46 62.52,16.23 L62.52,16.24 Z M62.13,17.32 L62.05,17.92 L61.94,17.92 L61.94,17.33 L62.18,17.33 L62.13,17.32 Z M58.13,28.62 C57.97,29.4 57.8033333,29.8 57.63,29.82 L57.63,29.72 C57.6132588,29.2926629 57.8030333,28.8833453 58.14,28.62 L58.13,28.62 Z M57.4,30.2 L57.4,30.3 C57.4202408,30.3668415 57.4059278,30.4393722 57.3618124,30.4935138 C57.317697,30.5476554 57.2495522,30.5763231 57.18,30.57 L57.18,30.45 C57.18,30.33 57.2533333,30.2466667 57.4,30.2 L57.4,30.2 Z M57.19,33.48 L57.56,33.48 L57.56,33.6 C57.4325007,33.6244412 57.3105134,33.6718807 57.2,33.74 L56.96,33.74 C56.96,33.6066667 57.0333333,33.5233333 57.18,33.49 L57.19,33.48 Z M67.65,30.25 C66.3698561,30.8175673 65.1475158,31.5074361 64,32.31 C61.76,33.09 60.66,33.58 60.67,33.77 C59.3365679,34.2643191 58.0341984,34.8386975 56.77,35.49 C56.5456051,35.4803769 56.3265134,35.4187574 56.13,35.31 C56.0846873,34.8968355 56.2996708,34.4987179 56.67,34.31 C57.0105753,34.2778027 57.35386,34.3292954 57.67,34.46 C58.2925341,34.1934464 58.9386973,33.9858707 59.6,33.84 L59.6,33.61 L58.85,33.68 C59.5213214,33.2632925 60.2396649,32.927618 60.99,32.68 L61.36,32.68 L61.36,32.78 C60.73,32.84 60.36,33.02 60.3,33.36 C60.2981074,33.4255511 60.3269456,33.488223 60.3779617,33.5294283 C60.4289779,33.5706337 60.4963142,33.5856412 60.56,33.57 C61.03,33.26 61.25,33.09 61.25,33.03 C62.1433333,32.87 64.6233333,31.57 68.69,29.13 L68.69,29.36 C68.69,29.45 68.35,29.75 67.69,30.26 L67.65,30.25 Z M61.41,32.25 C62.0001361,32.2279284 62.5634066,31.9976606 63,31.6 C63.16,31.6 63.25,31.66 63.26,31.81 C62.67362,31.9604014 62.1137775,32.1998521 61.6,32.52 L61.47,32.52 L61.47,32.3 L61.41,32.25 Z M71.49,24.51 L68.39,27.01 C67.1912272,27.8677645 65.9311836,28.6364914 64.62,29.31 C60.9333333,31.31 58.6366667,32.3633333 57.73,32.47 L57.6,32.47 C57.7133333,32.05 59.3633333,28.6833333 62.55,22.37 C64.8292106,21.9862498 67.0503632,21.3141916 69.16,20.37 L69.91,20.3 C71.1189423,20.085423 72.3612423,20.4106133 73.31,21.19 L73.31,21.65 C72.74,23.25 72.13,24.19 71.46,24.48 L71.49,24.51 Z M65.4,21.13 L65.88,21.13 L65.88,21.25 L65.4,21.25 L65.4,21.13 Z M72.45,19.93 L72.82,19.93 C73.16,20.1 73.34,20.25 73.35,20.37 L73.35,20.47 C72.9750019,20.4842131 72.6236118,20.2872802 72.44,19.96 L72.45,19.93 Z M73.45,14.26 C72.6444325,15.0282015 71.7516877,15.6994382 70.79,16.26 C68.9468522,16.807429 67.1509978,17.5030299 65.42,18.34 C65.2630975,18.283704 65.0963892,18.2598886 64.93,18.27 L64.93,18.04 C64.9448906,17.4287913 65.1512569,16.8376744 65.52,16.35 C65.76,15.06 66.03,14.35 66.31,14.18 L68.91,8.37 C68.91,8.03 69.43,7.75 70.55,7.53 L70.92,7.53 L70.92,7.88 C72.02,7.7 72.71,7.59666667 72.99,7.57 C74.99,7.39 76.11,7.8 76.2,8.81 L76.44,8.81 L76.44,8.25 L76.68,8.25 C77.199792,8.43703127 77.5807576,8.88657074 77.68,9.43 C77.6644803,9.88148031 77.4910799,10.3132119 77.19,10.65 C77.03,10.65 76.94,10.56 76.92,10.31 L76.68,10.31 L76.61,11.01 C75.61,12.58 74.82,13.4 74.35,13.43 C73.93,14 73.67,14.29 73.55,14.3 L73.45,14.26 Z M74.54,18.14 L74.54,17.79 L74.78,17.79 L75.3,18.11 C75.308722,18.173343 75.2894543,18.2373467 75.2472133,18.2853477 C75.2049724,18.3333488 75.1439378,18.3605977 75.08,18.36 C74.9319305,18.247161 74.7553023,18.1778951 74.57,18.16 L74.54,18.14 Z M31.15,40.76 L30.91,40.82 L30.7,41 C30.7074368,41.065725 30.7454047,41.1241051 30.8024674,41.1575557 C30.85953,41.1910062 30.9290177,41.1956173 30.99,41.17 C31.15,41.17 31.21,41.04 31.18,40.89 L31.18,40.77 L31.15,40.76 Z M30.23,38.92 L30.23,39.04 C30.39,39.04 30.45,38.91 30.42,38.76 L30.42,38.64 C30.3549187,38.6463496 30.2960347,38.6813211 30.259318,38.73543 C30.2226012,38.789539 30.2118573,38.857177 30.23,38.92 L30.23,38.92 Z M36.83,26.53 L37.01,26.42 L36.92,26.42 C36.8627141,26.4347705 36.8273702,26.4922044 36.84,26.55 L36.83,26.53 Z M36.83,23.32 L37.11,23.25 L37,23 L36.72,23.07 L36.78,23.31 L36.83,23.32 Z M102.68,32.73 L102.05,32.66 L101.94,32.9 L101.94,33 L105.71,32.68 L105.71,32.45 L102.71,32.71 L102.68,32.73 Z M106.13,32.44 L106.13,32.67 L106.13,32.67 L106.13,32.44 Z M121.96,30.37 L121.96,30.6 L122.37,30.67 L122.37,30.44 L121.96,30.37 Z M121.38,30.37 C120.147879,30.7130642 118.878496,30.9044791 117.6,30.94 L117.6,31.17 L117.86,31.17 L118,31.17 L118,31.17 L118.31,31.05 C121.11,30.74 121.44,30.85 121.41,30.54 L121.41,30.43 L121.38,30.37 Z M104.38,26.25 L104.13,26.17 C103.988798,26.4895587 103.88802,26.8254867 103.83,27.17 L103.83,27.27 C104.03,27.27 104.2,26.93 104.37,26.27 L104.38,26.25 Z M100.97,24.41 L100.97,24.29 L100.84,24.29 L100.61,24.44 L100.74,24.66 C100.92,24.66 101,24.56 100.98,24.4 L100.97,24.41 Z M108.38,32.07 L108.38,31.84 L108.31,31.84 L108.31,32.07 L108.38,32.07 Z M123.75,28.6 L123.93,28.6 C124.03,28.6 124.08,28.51 124.07,28.36 L123.97,28.14 C123.459788,28.1371732 122.957285,28.2645198 122.51,28.51 L122.51,28.39 L121.74,28.46 C121.74,28.23 121.66,28.11 121.55,28.12 L121.15,28.12 C120.68,28.12 120.46,28.12 120.23,28.32 C120.23,28.24 120.23,28.2 120.15,28.2 L119.7,28.2 L119.44,28.35 C119.44,28.27 119.44,28.23 119.36,28.23 L119.2,28.37 L119.2,28.25 L118.58,28.25 L118.43,28.25 L118.43,28.48 L118.75,28.56 L119.05,28.56 C119.15254,28.6201175 119.272051,28.6447227 119.39,28.63 L119.65,28.5 L119.65,28.6 C118.841178,28.8103735 118.019408,28.9673783 117.19,29.07 C117.119521,29.0107625 117.03189,28.9757101 116.94,28.97 L116.94,28.97 C116.886933,28.9674131 116.837076,28.9438176 116.801431,28.9044199 C116.765785,28.8650221 116.74728,28.8130603 116.75,28.76 L117.27,28.69 C117.384872,28.7265896 117.501726,28.7566378 117.62,28.78 C118.04,28.57 118.06,28.49 118.28,28.47 L118.28,28.24 C117.402397,28.4012995 116.512288,28.4849563 115.62,28.49 L115.54,28.49 L115.54,28.26 C117.85,27.98 117.08,28.14 117.87,27.92 C117.87,28 117.87,28.04 117.95,28.04 C118.035387,27.9518541 118.148251,27.8954219 118.27,27.88 L118.43,27.88 C119.295952,27.9188809 120.162737,27.8244453 121,27.6 L121,27.7 L121.26,27.57 L121.5,27.57 C121.5,27.34 121.84,27.3 121.96,27.29 L121.96,27.04 C119.15,27.61 118.41,27.45 117.63,27.67 L117.63,27.57 C117.302434,27.645821 116.965454,27.6727793 116.63,27.65 C116.540604,27.6770575 116.460804,27.7291013 116.4,27.8 C116.4,27.72 116.4,27.68 116.31,27.68 L116.31,27.68 L113.92,28.07 C113.92,28 113.92,27.97 113.83,27.98 C112.995549,28.2243431 112.137316,28.3785569 111.27,28.44 C111.158446,28.460287 111.052657,28.5046504 110.96,28.57 C110.96,28.5 110.96,28.47 110.83,28.48 L109.83,28.56 L109.15,28.73 C109.15,28.66 109.15,28.63 109.02,28.64 C108.693379,28.7346206 108.358564,28.7982354 108.02,28.83 L108.02,28.83 C107.85,28.83 108.1,28.83 108.02,28.73 L107.81,28.85 L106.65,28.85 C104.85,29.07 105.05,29.1 104.85,29.11 L104.18,29.11 C104.186895,29.1389306 104.179053,29.1693996 104.159047,29.1914061 C104.139041,29.2134127 104.109455,29.2241149 104.08,29.22 C103.32,29.12 102.92,29 102.92,28.86 C103.02,28.1333333 103.196667,27.76 103.45,27.74 L103.58,27.74 L103.47,27.98 L103.6,27.98 C103.84,27.85 103.95,27.73 103.94,27.62 L103.94,27.37 L103.7,27.37 L103.7,27.14 C103.677611,26.9798614 103.701917,26.8166639 103.77,26.67 L104.32,25.78 L104.32,26.01 L104.58,26.01 L104.58,25.78 L104.43,25.57 C104.558822,25.4384473 104.721464,25.3450148 104.9,25.3 L104.9,25.18 L104.55,25.18 L104.55,24.83 C105.000422,24.0236265 105.336955,23.1587379 105.55,22.26 L105.8,22.36 C105.96,22.36 106.03,22.26 106.02,22.09 L105.78,22.09 L105.78,21.99 C105.762741,21.8214294 105.793965,21.651435 105.87,21.5 C106.216169,21.1909218 106.406759,20.7437686 106.39,20.28 C106.46,20.28 106.5,20.28 106.51,20.39 C106.84,20.2 107.09,19.71 107.27,18.89 C108.241823,16.8684526 109.067277,14.7797516 109.74,12.64 C111.79,7.12 111.74,6.54 111.99,5.23 L111.75,5.23 C111.768199,5.39538232 111.736875,5.56244418 111.66,5.71 C111.537393,5.65402446 111.404737,5.62341137 111.27,5.62 L111.27,5.52 C111.280016,4.89847594 111.494385,4.29753858 111.88,3.81 L111.99,3.81 L112.2,4.61 L112.44,4.61 C112.479988,4.27265183 112.543476,3.93850641 112.63,3.61 C112.63,3.49 112.53,3.41 112.34,3.4 L112.11,3.55 L112.11,2.25 L111.99,2.25 C111.828556,2.12123333 111.71571,1.94138444 111.67,1.74 L110.34,1.87 C110.315059,1.72542599 110.264245,1.58653595 110.19,1.46 C110.19,1.34 110.48,1.22 111.09,1.1 L111.36,1.2 L111.61,1.05 C111.61,1.13 111.67,1.17 111.76,1.16 L112.01,1.01 C112.01,1.09 112.07,1.13 112.16,1.12 L112.28,1.12 L112.28,0.85 L110.82,0.85 L110.57,1.02 L110.57,0.87 C104.316667,1.38333333 100.766667,1.68 99.92,1.76 L98.6,1.76 C98.6,1.86 98.52,1.92 98.33,1.94 L98.06,1.82 L97,2 C96.6407175,2.03214314 96.2792825,2.03214314 95.92,2 C95.773936,2.11635922 95.5962245,2.18605001 95.41,2.2 L98.06,2 C97.8677499,2.1304655 97.6422429,2.20332161 97.41,2.21 C97.22829,2.23469596 97.0433719,2.20329478 96.88,2.12 C96.2247363,2.3217414 95.5565336,2.47876904 94.88,2.59 L94.61,2.49 L90.25,3.16 C90.0655365,3.07569368 89.8612098,3.04452519 89.66,3.07 C89.2671441,3.12145229 88.8791746,3.20506639 88.5,3.32 L86.39,4.2 L86.55,4.46 C86.703215,4.43250229 86.8494027,4.37470719 86.98,4.29 L87.73,4.36 L87.64,5.06 C87.0384039,5.2739112 86.5864986,5.7785388 86.44,6.4 C85.44,6.86 84.89,7.18 84.89,7.4 L84.89,7.52 L85.05,7.52 L85.33,7.37 L85.66,7.76 L85.66,8.3 C85.66,8.46666667 83.9233333,12.1333333 80.45,19.3 C77.45,26.2 75.85,29.97 75.7,30.65 C74.7,30.94 74.07,31.36 73.89,31.92 C73.89,32.1 74.22,32.22 74.81,32.26 L74.81,32.53 L74.54,32.98 L74.54,33.52 C74.54,33.8 75.2933333,34.0133333 76.8,34.16 C76.8,34.07 76.8,34.01 76.94,34 C76.9298411,34.6756888 76.8357876,35.3474992 76.66,36 L77,36 C77.4519248,35.5187823 77.7572021,34.9186349 77.88,34.27 L78,34.27 C78.15,34.27 78.31,34.43 78.49,34.79 C78.3033333,34.8633333 77.6366667,36.3466667 76.49,39.24 L76.65,39.5 L76.81,39.5 C78.1766667,36.0333333 79.0366667,34.1166667 79.39,33.75 C81.19,33.59 84.3,33.2566667 88.72,32.75 L89,32.58 C88.9979103,32.6226821 89.0169304,32.6636654 89.050876,32.6896238 C89.0848215,32.7155821 89.1293565,32.7231998 89.17,32.71 L89.46,32.71 L89.74,32.54 C89.7379103,32.5826821 89.7569304,32.6236654 89.790876,32.6496238 C89.8248215,32.6755821 89.8693565,32.6831998 89.91,32.67 L93.26,32.38 C94.15,32.31 94.56,32.04 94.53,31.58 C94.53,31.46 95.04,31.32 96.1,31.17 C96.2569413,31.168239 96.4128682,31.1953567 96.56,31.25 C96.56,31.17 97.08,31.08 98.14,30.99 C98.14,30.43 98.34,30.13 98.66,30.1 L98.66,29.83 C98.3191745,29.8693788 97.983782,29.9465191 97.66,30.06 C97.2122199,30.0543916 96.7663343,30.0007512 96.33,29.9 C96.1987024,29.9833405 96.0527914,30.0410263 95.9,30.07 L93.51,30 L93.23,30.15 C93.23,30.0633333 93.1733333,30.0266667 93.06,30.04 L92.93,30.04 L92.63,30.19 C92.63,30.11 92.38,30.04 91.89,29.98 L91.59,30.16 L91.01,30.16 L91.01,30.01 C94.01,29.6833333 95.49,29.2766667 95.45,28.79 C95.5303571,28.7707515 95.6150792,28.7908455 95.6782329,28.8441314 C95.7413865,28.8974173 95.7754513,28.9775497 95.77,29.06 L96.65,28.84 L96.65,28.57 L89.47,28.77 C89.47,28.86 89.47,28.92 89.33,28.93 L88.45,28.86 C88.2480743,28.8718702 88.0537607,28.9412679 87.89,29.06 L87.54,29 C86.8638767,29.0419736 86.1937683,29.1525415 85.54,29.33 C84.874365,29.2775492 84.205635,29.2775492 83.54,29.33 L81.93,29.47 L81.18,29.39 C81.18,28.91 82.07,26.58 83.97,22.39 C84.2513937,21.3937473 84.7813055,20.4853272 85.51,19.75 C85.6695774,19.7522289 85.8266775,19.7897963 85.97,19.86 L87,19.47 L87.59,19.56 C88.7725293,19.430483 89.9326499,19.1446562 91.04,18.71 C91.2920274,18.67408 91.5489727,18.6980616 91.79,18.78 L92.67,18.57 L95.28,18.35 C96.5096234,18.2332675 97.7232097,17.9851863 98.9,17.61 L98.9,17.34 C98.42,17.34 98.16,17.34 98.15,17.11 C98.15,16.75 97.77,16.6 97.09,16.65 L97.09,16.38 L97.81,16.17 L99.69,16.01 L99.69,15.74 L98.53,15.74 L98.53,15.45 L99.26,15.38 C99.46,15.38 99.54,15.27 99.52,15.08 C98.52,15.08 98.05,15.08 98.04,14.93 C91.22,15.2633333 87.8,15.3266667 87.78,15.12 C87.6252882,15.1535888 87.4790024,15.2182267 87.35,15.31 L87.06,15 C88.8666667,11.16 89.9266667,9.22666667 90.24,9.2 C90.2217372,9.45348905 90.1465381,9.69959506 90.02,9.92 L90.02,10 L90.31,10 C91.03,8.29 91.63,7.4 92.14,7.36 C94.28,7.17 91.84,7.03 96.43,6.36 C96.5557938,6.42919971 96.6964615,6.46693981 96.84,6.47 C98.64,6.10333333 101.146667,5.72333333 104.36,5.33 L104.36,5.06 L102.65,5.22 L102.65,4.95 C102.836224,4.93605001 103.013936,4.86635922 103.16,4.75 L103.16,4.9 C103.302337,4.86596772 103.435469,4.80110836 103.55,4.71 C103.77967,4.67176969 104.015474,4.69951131 104.23,4.79 C104.702174,4.65787916 105.183493,4.56094682 105.67,4.5 L106.74,4.4 C107,4.23 107.12,4.08 107.11,3.94 L107.11,3.82 C106.795402,3.8439707 106.478997,3.82377465 106.17,3.76 C106.161586,3.6883059 106.182231,3.61622783 106.227325,3.55985989 C106.272419,3.50349195 106.338207,3.4675286 106.41,3.46 L108.41,3.27 L109.32,3.04 C109.32,3.14 109.38,3.18 109.45,3.18 C109.592337,3.14596772 109.725469,3.08110836 109.84,2.99 L109.99,2.99 C109.828514,3.34237432 109.694775,3.70681414 109.59,4.08 L109.33,4.08 C109.316354,3.91082899 109.265107,3.74683937 109.18,3.6 L109,3.6 C106.58,10.35 105.5,13.49 103.26,18.67 C102.85,19.99 102.51,20.73 102.21,20.89 C102.208107,20.9555511 102.236946,21.018223 102.287962,21.0594283 C102.338978,21.1006337 102.406314,21.1156412 102.47,21.1 C102.521587,21.7755543 102.360757,22.450341 102.01,23.03 C101.01,26.03 100.29,27.64 99.93,27.94 L100.16,29.35 C100.168722,29.413343 100.149454,29.4773467 100.107213,29.5253477 C100.064972,29.5733488 100.003938,29.6005977 99.94,29.6 L99.7,29.6 C99.7,29.21 99.52,29.02 99.27,29.05 L99.14,29.05 C98.8045463,29.5785366 98.5610989,30.1601055 98.42,30.77 L98.66,30.77 C98.9436846,30.6294294 99.1194657,30.3364608 99.11,30.02 L99.59,30.02 L99.87,30.12 C99.6810616,30.3643527 99.5727325,30.6613839 99.56,30.97 L99.69,31.19 L99.37,31.94 L99.37,32.06 C99.6933576,32.0469121 100.012365,32.1380572 100.28,32.32 C100.542557,32.2738166 100.789779,32.16394 101,32 L104.12,32 L105.02,31.69 C105.764049,31.7063874 106.508443,31.6830208 107.25,31.62 L107.64,31.62 L107.85,31.48 L107.85,31.6 C108.463348,31.5302506 109.083724,31.5538519 109.69,31.67 L109.69,31.79 L109.14,31.79 L109.14,32.02 C109.300557,32.0094637 109.454068,31.9501525 109.58,31.85 C109.72,31.85 109.8,31.92 109.81,32.08 C109.554199,32.1070619 109.302469,32.1641206 109.06,32.25 L108.82,32.17 C108.44,32.27 108.52,32.3 108.26,32.32 L107.88,32.25 C107.886183,32.2770888 107.879508,32.3055149 107.861913,32.3270197 C107.844318,32.3485245 107.817777,32.3606967 107.79,32.36 C107.786273,32.4203901 107.810084,32.4792213 107.854766,32.5200179 C107.899448,32.5608146 107.960197,32.5791907 108.02,32.57 L108.41,32.57 L110.41,32.39 L111.18,32.22 C111.18,32.29 111.18,32.32 111.28,32.31 L111.65,32.17 L112.35,32.11 C112.89,32.11 112.88,32.03 114.06,31.84 C114.06,31.77 114.06,31.74 114.13,31.73 L114.13,31.83 C114.919465,31.7342757 115.701341,31.5839149 116.47,31.38 L116.47,31.44 C116.95,31.33 116.68,31.36 116.81,31.26 C116.81,31.34 116.81,31.38 116.89,31.38 L117.23,31.38 L117.23,31.13 L116.55,31.13 L116.55,31.13 L116.48,31.13 L116.39,31.13 L116.39,31.13 C116.139514,31.1769182 115.884745,31.1970316 115.63,31.19 L113.92,31.28 L113.92,31.16 L114.92,31.03 L115.26,31.03 L115.46,30.89 L115.46,31 C116.8,30.89 117.28,31.22 123.46,29.9 C123.8,29.9 123.77,29.59 123.98,29.01 C123.865494,29.019878 123.750635,28.9955139 123.65,28.94 C123.069269,29.0810053 122.476749,29.1680421 121.88,29.2 C121.8,29.2 121.73,29.13 121.7,28.99 L121.7,28.89 L122.7,28.89 C123.054446,28.8523315 123.39605,28.7361858 123.7,28.55 C123.7,28.63 123.5,28.68 123.62,28.67 L123.75,28.6 Z M77.87,29.34 L77.43,29.34 C77.5765,28.6460452 77.8117687,27.9738489 78.13,27.34 L78.42,27.34 C78.3286848,28.0286196 78.1436374,28.701519 77.87,29.34 Z M78.4,27.22 L78.4,27.1 C78.4,26.95 78.48,26.85 78.69,26.8 L78.69,27 C78.69,27.18 78.61,27.28 78.4,27.3 L78.4,27.22 Z M84.22,31.72 L84.22,31.84 L83.49,31.91 L83.49,31.79 L84.22,31.72 Z M83.34,31.65 C83.34,31.8 83.13,31.97 82.64,32.13 L81.75,32.06 L81.46,32.06 L81.46,31.79 L83.37,31.61 L83.34,31.65 Z M89.23,4.54 L88.79,4.54 L88.79,4.39 C88.79,4.24 88.86,4.14 89.05,4.09 L89.21,4.09 L89.51,4.21 C89.5221466,4.28735375 89.4987849,4.36606233 89.4464038,4.42426345 C89.3940228,4.48246458 89.3182014,4.51395946 89.24,4.51 L89.23,4.54 Z M95.89,3.24 L96,3.24 L96,3.51 L95.6,3.51 C95.5915856,3.4383059 95.6122305,3.36622783 95.6573249,3.30985989 C95.7024192,3.25349195 95.7682075,3.2175286 95.84,3.21 L95.89,3.24 Z M94.21,3.83 L93.55,3.76 L93.55,3.64 C94.1241577,3.60172754 94.6915959,3.49428363 95.24,3.32 C95.24,3.42 95.34,3.46 95.51,3.44 L95.51,3.71 L95.25,3.71 C95.06829,3.73469596 94.8833719,3.70329478 94.72,3.62 C94.5678327,3.72357913 94.3928464,3.78877011 94.21,3.81 L94.21,3.83 Z M95,6.29 L95,6.17 L96.07,6.07 L96.07,6.19 L95,6.29 Z M96.15,5.36 L96.15,5.2 L96.67,5.2 L96.67,5.35 L96.15,5.35 L96.15,5.36 Z M96.27,3.53 L96.13,3.53 L96.25,3.24 L97.44,3.13 L97.44,3.28 C97.0406552,3.32691056 96.6459418,3.40719125 96.26,3.52 L96.27,3.53 Z M96.88,6.1 L96.88,5.83 L97.4,5.83 C97.58,5.83 97.6733333,5.91333333 97.68,6.08 L96.9,6.15 L96.88,6.1 Z M100.04,1.8 L99.37,1.99 L99.25,1.99 C98.834509,2.03142408 98.4161006,2.03477134 98,2 C98.87,1.94 99.7,1.88 100,1.83 L100.04,1.8 Z M99.32,4.8 L99.32,4.92 L98.4,5 L98.4,4.88 L99.32,4.8 Z M100.83,5.52 C100.83,5.41 100.64,5.33 100.28,5.3 L99.36,5.56 L98.65,5.56 C98.49,5.45 98.41,5.37 98.4,5.32 L99.22,5.32 L101.06,5.02 L102,5.02 L102,5.17 C101.598801,5.20473958 101.202894,5.28526311 100.82,5.41 L100.83,5.52 Z M110.32,3 L110.53,3 C110.849359,2.68219737 111.225989,2.42771788 111.64,2.25 C111.43494,3.46606482 110.890735,4.59953452 110.07,5.52 L109.55,5.2 C109.857562,4.47864522 110.114843,3.73687378 110.32,2.98 L110.32,3 Z M108.72,5.75 L108.85,5.75 C108.67,6.09 108.51,6.26 108.38,6.27 L108.38,5.92 C108.511586,5.89792307 108.635437,5.84287825 108.74,5.76 L108.72,5.75 Z M107.72,8.22 C107.800054,7.59210865 108.048885,6.99767954 108.44,6.5 L108.44,6.62 C108.31,7.55 108.1,8.05 107.83,8.08 L107.83,8.67 C107.646854,8.87996325 107.534841,9.14249343 107.51,9.42 L107.38,9.42 L107.31,8.61 C107.46,8.61 107.58,8.46 107.66,8.22 L107.72,8.22 Z M107.32,9.56 C107.281446,9.90513737 107.190396,10.2423602 107.05,10.56 L106.92,10.56 L106.92,10.21 C107.1,9.8 107.25,9.59 107.35,9.59 L107.32,9.56 Z M99.8,31.38 L99.8,31.28 L100.04,31.28 L100.04,31.63 C99.91,31.63 99.82,31.56 99.78,31.4 L99.8,31.38 Z M110.54,31.66 C110.54,31.58 110.54,31.54 110.41,31.55 L109.8,31.61 L109.8,31.49 L109.86,31.49 L111.29,31.37 L111.29,31.49 C111.027331,31.470126 110.765038,31.5330763 110.54,31.67 L110.54,31.66 Z M109.82,31.36 C109.88,31.36 109.82,31.42 109.82,31.43 C109.82,31.44 109.75,31.43 109.82,31.36 Z M109.89,29.68 L109.09,29.75 L109.09,29.63 L109.82,29.56 L110.45,29.4 C110.45,29.47 110.45,29.5 110.58,29.49 C111.33,29.36 111.26,29.32 111.58,29.29 C111.7,29.29 111.78,29.36 111.79,29.5 L109.86,29.67 L109.89,29.68 Z M112.69,29.44 C112.430183,29.3872496 112.164803,29.3670942 111.9,29.38 L111.9,29.28 L112.62,29.21 L112.62,29.31 C112.55,29.31 112.82,29.31 112.69,29.43 L112.69,29.44 Z M112.75,29.31 L112.75,29.21 L113.14,29.21 L113.14,29.31 L112.75,29.31 Z M113.62,29.24 L113.62,29.14 C113.723866,29.1128062 113.819817,29.0614039 113.9,28.99 C113.977533,28.9786605 114.056271,29.0003286 114.117086,29.0497407 C114.177901,29.0991528 114.215228,29.1717872 114.22,29.25 L113.62,29.24 Z M114.73,29.1 L114.73,29 L115.21,29 L115.21,29.12 L114.73,29.12 L114.73,29.1 Z M115.39,29.04 C115.39,28.9 115.39,28.82 115.56,28.8 L115.72,29.01 C115.714062,28.9860853 115.718189,28.960782 115.731418,28.9399935 C115.744647,28.919205 115.765821,28.9047496 115.79,28.9 L115.91,29.12 L115.39,29.05 L115.39,29.04 Z M124.7,27.88 C124.77,27.88 124.81,27.79 124.63,27.76 C124.45,27.73 124.72,27.88 124.54,27.89 L124.54,28 L124.64,27.93 L124.54,28.01 L124.54,28.01 L124.34,28.26 L124.73,28.12 L124.73,28.12 L124.73,27.89 L124.7,27.88 Z M125.38,28.41 L125.31,28.41 L125.31,28.64 L125.86,28.64 C125.86,28.49 125.49,28.44 125.37,28.44 L125.38,28.41 Z" id="Shape"></path>
            </g>
        </g>
    </g>
</svg>