<?xml version="1.0" encoding="UTF-8"?>
<svg width="125px" height="125px" viewBox="0 0 125 125" version="1.1" xmlns="http://www.w3.org/2000/svg" xmlns:xlink="http://www.w3.org/1999/xlink">
    <!-- Generator: Sketch 43.1 (39012) - http://www.bohemiancoding.com/sketch -->
    <title>bootstrap-plain</title>
    <desc>Created with Sketch.</desc>
    <defs></defs>
    <g id="Page-1" stroke="none" stroke-width="1" fill="none" fill-rule="evenodd">
        <g id="Artboard" transform="translate(-803.000000, -196.000000)" fill-rule="nonzero" fill="#F4B400">
            <g id="bootstrap-plain" transform="translate(803.000000, 196.000000)">
                <path d="M74.701,63.603 C72.367,62.835 69.007,63 64.621,63 L47,63 L47,86 L65.844,86 C68.788,86 70.856,85.685 72.047,85.465 C74.146,85.089 75.901,84.361 77.311,83.483 C78.72,82.607 79.879,81.278 80.789,79.602 C81.697,77.926 82.152,75.965 82.152,73.772 C82.152,71.204 81.494,69.232 80.177,67.336 C78.861,65.44 77.036,64.371 74.701,63.603 L74.701,63.603 Z M72.282,53.087 C74.599,52.399 76.346,51.197 77.521,49.6 C78.697,48.002 79.284,45.969 79.284,43.556 C79.284,41.27 78.735,39.242 77.638,37.502 C76.541,35.762 74.976,35.089 72.939,34.446 C70.902,33.805 67.409,34 62.459,34 L47,34 L47,54 L63.587,54 C67.629,54 70.526,53.62 72.282,53.087 L72.282,53.087 Z M125,16.625 C125,7.443 117.557,0 108.375,0 L16.625,0 C7.443,0 0,7.443 0,16.625 L0,108.375 C0,117.557 7.443,125 16.625,125 L108.375,125 C117.557,125 125,117.557 125,108.375 L125,16.625 Z M89.553,82.745 C88.191,85.518 86.506,87.656 84.501,89.16 C82.495,90.664 79.98,91.94 76.957,92.708 C73.935,93.477 70.229,94 65.844,94 L38,94 L38,25 L65.42,25 C70.684,25 74.905,25.609 78.085,27.002 C81.266,28.397 83.756,30.499 85.559,33.397 C87.36,36.295 88.261,39.304 88.261,42.468 C88.261,45.413 87.461,48.176 85.864,50.776 C84.266,53.378 81.853,55.47 78.627,57.068 C82.793,58.29 85.997,60.372 88.237,63.316 C90.477,66.261 91.597,69.738 91.597,73.748 C91.597,76.975 90.916,79.973 89.553,82.745 L89.553,82.745 Z" id="Shape"></path>
            </g>
        </g>
    </g>
</svg>