<?xml version="1.0" encoding="UTF-8"?>
<svg width="126px" height="74px" viewBox="0 0 126 74" version="1.1" xmlns="http://www.w3.org/2000/svg" xmlns:xlink="http://www.w3.org/1999/xlink">
    <!-- Generator: Sketch 43.1 (39012) - http://www.bohemiancoding.com/sketch -->
    <title>express</title>
    <desc>Created with Sketch.</desc>
    <defs></defs>
    <g id="Page-1" stroke="none" stroke-width="1" fill="none" fill-rule="evenodd">
        <g id="Artboard" transform="translate(-1123.000000, -66.000000)" fill-rule="nonzero" fill="#F4B400">
            <g id="express" transform="translate(1123.000000, 66.000000)">
                <path d="M125.67,71.44 C121.11,72.6 118.29,71.49 115.76,67.69 C110.08,59.18 103.81,51.06 97.76,42.79 C96.98,41.72 96.17,40.67 95.16,39.34 C88,49 80.85,58.2 74.14,67.77 C71.74,71.19 69.22,72.68 64.74,71.47 L91.66,35.34 L66.6,2.71 C70.91,1.87 73.89,2.3 76.53,6.16 C82.36,14.68 88.79,22.79 95.2,31.37 C101.65,22.82 108,14.7 114,6.26 C116.41,2.84 119,1.54 123.33,2.8 C120.05,7.15 116.84,11.43 113.61,15.68 C109.25,21.41 104.97,27.21 100.45,32.82 C98.84,34.82 99.1,36.12 100.54,38.01 C108.9,49 117.16,60.1 125.67,71.44 Z" id="Shape"></path>
                <path d="M0.33,34.74 C1.05,31.13 1.53,27.45 2.53,23.91 C8.53,2.48 33.13,-6.43 50.03,6.85 C59.93,14.64 62.39,25.62 61.9,38 L6.1,38 C5.26,60.21 21.25,73.62 41.63,66.78 C48.78,64.38 52.99,58.78 55.1,51.78 C56.17,48.27 57.94,47.72 61.24,48.72 C59.55,57.48 55.72,64.8 47.72,69.38 C35.72,76.24 18.59,74.02 9.58,64.49 C4.26,58.89 2,51.92 1,44.39 C0.85,43.19 0.54,42.01 0.3,40.82 C0.32,38.7933333 0.33,36.7666667 0.33,34.74 Z M6.2,33.25 L56.63,33.25 C56.3,17.19 46.3,5.78 32.63,5.68 C17.63,5.56 6.85,16.7 6.2,33.25 Z" id="Shape"></path>
            </g>
        </g>
    </g>
</svg>