<?xml version="1.0" encoding="UTF-8"?>
<svg width="127px" height="127px" viewBox="0 0 127 127" version="1.1" xmlns="http://www.w3.org/2000/svg" xmlns:xlink="http://www.w3.org/1999/xlink">
    <!-- Generator: Sketch 43.1 (39012) - http://www.bohemiancoding.com/sketch -->
    <title>git-plain</title>
    <desc>Created with Sketch.</desc>
    <defs></defs>
    <g id="Page-1" stroke="none" stroke-width="1" fill="none" fill-rule="evenodd">
        <g id="Artboard" transform="translate(-971.000000, -194.000000)" fill-rule="nonzero" fill="#F4B400">
            <g id="git-plain" transform="translate(971.000000, 194.000000)">
                <path d="M123.884274,57.4945 L68.7672736,2.3805 C65.5952736,-0.7935 60.4472736,-0.7935 57.2702736,2.3805 L45.8272736,13.8265 L60.3452736,28.3445 C63.7202736,27.2055 67.5882736,27.9695 70.2772736,30.6585 C72.9802736,33.3645 73.7392736,37.2655 72.5702736,40.6515 L86.5622736,54.6455 C89.9472736,53.4785 93.8542736,54.2325 96.5562736,56.9405 C100.336274,60.7175 100.336274,66.8405 96.5562736,70.6195 C92.7762736,74.3995 86.6552736,74.3995 82.8732736,70.6195 C80.0312736,67.7755 79.3282736,63.6005 80.7682736,60.0985 L67.7202736,47.0495 L67.7182736,81.3905 C68.6402736,81.8455 69.5092736,82.4535 70.2772736,83.2185 C74.0562736,86.9955 74.0562736,93.1165 70.2772736,96.9015 C66.4982736,100.6785 60.3732736,100.6785 56.5982736,96.9015 C52.8202736,93.1175 52.5102736,86.9965 56.2872736,83.2185 C57.2212736,82.2855 58.1422736,81.5805 59.1422736,81.1085 L59.1422736,46.4495 C58.1422736,45.9775 57.2222736,45.2775 56.2862736,44.3385 C53.4252736,41.4785 52.8902736,37.2785 54.3582736,33.7625 L40.1252736,19.4495 L2.37127362,57.2395 C-0.803726378,60.4165 -0.783726378,65.5645 2.39127362,68.7395 L57.5172736,123.8535 C60.6902736,127.0275 65.8422736,127.0275 69.0202736,123.8535 L123.880274,68.9955 C127.055274,65.8195 127.058274,60.6685 123.884274,57.4945 L123.884274,57.4945 Z" id="Shape"></path>
            </g>
        </g>
    </g>
</svg>