<?xml version="1.0" encoding="UTF-8"?>
<svg width="101px" height="125px" viewBox="0 0 101 125" version="1.1" xmlns="http://www.w3.org/2000/svg" xmlns:xlink="http://www.w3.org/1999/xlink">
    <!-- Generator: Sketch 43.1 (39012) - http://www.bohemiancoding.com/sketch -->
    <title>heroku-plain</title>
    <desc>Created with Sketch.</desc>
    <defs></defs>
    <g id="Page-1" stroke="none" stroke-width="1" fill="none" fill-rule="evenodd">
        <g id="Artboard" transform="translate(-1279.000000, -196.000000)" fill-rule="nonzero" fill="#F4B400">
            <g id="heroku-plain" transform="translate(1279.000000, 196.000000)">
                <path d="M88.1,0 L11.9,0 C5.3,0 0,5.3 0,11.9 L0,112.2 C0,118.8 5.3,124.1 11.9,124.1 L88.2,124.1 C94.8,124.1 100.1,118.8 100.1,112.2 L100.1,11.9 C100,5.3 94.7,5.32907052e-15 88.1,5.32907052e-15 L88.1,0 Z M23,106.7 L23,78.5 L37.1,92.6 L23,106.7 L23,106.7 Z M76,107 L62.9,107 L63,106.8 L63,57.4 C63,57.4 66.1,45.6 23.3,62.2 C23.2,62.4 23.1,16.5 23.1,16.5 L37,16.4 L37,45.8 C37,45.8 76,30.4 76,57.5 L76,107 Z M70.8,34 L56,34 C61.3,28 66.2,17 66.2,17 L81.5,17 C81.5,17 78.9,24 70.8,34 Z" id="Shape"></path>
            </g>
        </g>
    </g>
</svg>