<?xml version="1.0" encoding="UTF-8"?>
<svg width="113px" height="125px" viewBox="0 0 113 125" version="1.1" xmlns="http://www.w3.org/2000/svg" xmlns:xlink="http://www.w3.org/1999/xlink">
    <!-- Generator: Sketch 43.1 (39012) - http://www.bohemiancoding.com/sketch -->
    <title>jest-icon</title>
    <desc>Created with Sketch.</desc>
    <defs></defs>
    <g id="Page-1" stroke="none" stroke-width="1" fill="none" fill-rule="evenodd">
        <g id="Artboard" transform="translate(-1413.000000, -196.000000)" fill-rule="nonzero">
            <g id="jest-icon" transform="translate(1413.000000, 196.000000)">
                <path d="M105.925386,61.485424 C105.925386,55.0658127 100.724738,49.8617491 94.3093396,49.8617491 C93.8966248,49.8617491 93.4896482,49.8838339 93.0884099,49.9257951 L109.043039,2.83878092 L41.2412732,2.83878092 L57.1733904,49.885159 C56.9398865,49.8710247 56.7050584,49.8617491 56.4675818,49.8617491 C50.0521834,49.8617491 44.8515349,55.0658127 44.8515349,61.485424 C44.8515349,66.67447 48.2499216,71.0675795 52.9407459,72.5622792 C50.4631326,76.8564488 47.3459216,80.7239399 43.8067263,84.0649293 C38.994074,88.6082155 33.4862068,92.0530035 27.5294295,94.1757951 C20.4369138,90.5300353 17.0875232,82.4213781 20.1098318,75.3122792 C20.4510388,74.5097173 20.7993084,73.6956714 21.1325701,72.8856007 C26.2705388,71.6855124 30.0992966,67.0759717 30.0992966,61.5689046 C30.0992966,55.1492933 24.8986482,49.9452297 18.4832498,49.9452297 C12.0674099,49.9452297 6.86676149,55.1492933 6.86676149,61.5689046 C6.86676149,65.505742 8.82439821,68.9823322 11.8162498,71.0852473 C8.94092946,77.6360424 4.71490602,84.4911661 3.39819118,92.4363958 C1.82016384,101.958922 3.39333571,112.066696 11.6233552,117.774735 C30.7909802,131.068021 51.5971052,109.534011 73.5345545,104.120583 C81.4847224,102.158569 90.2117654,102.474823 97.2164412,98.4151943 C102.476679,95.3666078 105.944367,90.3144876 106.928703,84.6422261 C107.900679,79.0388693 106.483324,73.4598057 103.22398,68.9359541 C104.909711,66.9182862 105.925386,64.3211131 105.925386,61.485424 L105.925386,61.485424 Z M68.0827459,61.5265018 C68.0827459,61.5128092 68.0840701,61.4991166 68.0840701,61.485424 C68.0840701,57.2698763 65.8408435,53.5781802 62.4843904,51.540636 L75.1651091,25.8820671 L87.8678982,51.8127208 C84.7484802,53.8966431 82.6928513,57.45053 82.6928513,61.485424 C82.6928513,61.5702297 82.6977068,61.6537102 82.6994724,61.7380742 L68.0827459,61.5265018 L68.0827459,61.5265018 Z" id="Shape" fill="#F4B400"></path>
                <path d="M108.762074,61.485424 C108.762074,54.4249117 103.678399,48.5335689 96.9818245,47.2751767 L113.000016,0 L37.283836,0 L53.326305,47.3710247 C46.8627932,48.8105124 42.0143868,54.5905477 42.0143868,61.485424 C42.0143868,66.6634276 44.7488987,71.2115724 48.8473557,73.7672261 C46.8760354,76.7058304 44.5383479,79.4712898 41.8594532,82 C37.6113594,86.0106007 32.8781602,89.0521201 27.775504,91.0530035 C22.636211,87.8224382 20.4636094,81.7305654 22.7200782,76.4231449 L22.8966407,76.0079505 C23.0069922,75.7482332 23.1177852,75.4876325 23.2281368,75.2270318 C28.8728399,73.2575088 32.9359844,67.880742 32.9359844,61.5689046 C32.9359844,53.5940813 26.452168,47.1064488 18.4825782,47.1064488 C10.5129883,47.1064488 4.02961334,53.5940813 4.02961334,61.5689046 C4.02961334,65.5940813 5.68267973,69.2389576 8.34347661,71.8635159 C7.86101958,72.8926678 7.35384379,73.9386042 6.83254301,75.010159 C4.39951178,80.0106007 1.64204693,85.6784452 0.599003964,91.9721731 C-1.47251557,104.471731 1.86848834,114.463781 10.0066954,120.107774 C14.9451485,123.532686 19.9599649,124.879859 25.0065625,124.879417 C34.5095977,124.878975 44.1221016,120.102032 53.524055,115.428887 C60.2956682,112.063604 67.2972542,108.583481 74.2136487,106.876767 C76.7870471,106.241608 79.4350432,105.859541 82.2384143,105.454947 C87.7974846,104.652385 93.5463596,103.82288 98.6384221,100.871908 C104.540465,97.4509717 108.581098,91.7124558 109.723457,85.1280919 C110.704262,79.4757067 109.5235,73.8149293 106.644649,69.0136926 C107.986965,66.8193463 108.762074,64.2416078 108.762074,61.485424 L108.762074,61.485424 Z M103.088239,61.485424 C103.088239,66.3295053 99.150012,70.2707597 94.3086682,70.2707597 C89.4682073,70.2707597 85.5295393,66.3295053 85.5295393,61.485424 C85.5295393,56.6413428 89.4682073,52.70053 94.3086682,52.70053 C99.150012,52.70053 103.088239,56.6413428 103.088239,61.485424 L103.088239,61.485424 Z M105.08516,5.67756184 L90.9402971,47.4235866 C90.3271839,47.5706714 89.7295198,47.7561837 89.1490706,47.9792403 L75.1759143,19.4553887 L61.1621487,47.8105124 C60.5565393,47.6015901 59.9332737,47.4297703 59.2941175,47.3025618 L45.1978089,5.67756184 L105.08516,5.67756184 L105.08516,5.67756184 Z M56.4673518,52.70053 C61.3082542,52.70053 65.2464807,56.6413428 65.2464807,61.485424 C65.2464807,66.3295053 61.3082542,70.2707597 56.4673518,70.2707597 C51.6268909,70.2707597 47.6882229,66.3295053 47.6882229,61.485424 C47.6882229,56.6413428 51.6268909,52.70053 56.4673518,52.70053 L56.4673518,52.70053 Z M18.4825782,52.7840106 C23.3239219,52.7840106 27.2621485,56.7248233 27.2621485,61.5689046 C27.2621485,66.4129859 23.3239219,70.3542403 18.4825782,70.3542403 C13.6421172,70.3542403 9.70344926,66.4129859 9.70344926,61.5689046 C9.70344926,56.7248233 13.6421172,52.7840106 18.4825782,52.7840106 L18.4825782,52.7840106 Z M104.133047,84.1568021 C103.278926,89.0808304 100.239403,93.3825088 95.7944417,95.9584806 C91.6509612,98.3599823 86.6855823,99.0768551 81.4284339,99.8352473 C78.612262,100.241608 75.6998635,100.662102 72.8550003,101.364399 C65.332555,103.220406 58.046262,106.841873 51.000094,110.344081 C36.8993711,117.352473 24.7214141,123.404594 13.2391133,115.441254 C4.82811723,109.608216 5.21655473,98.815371 6.19647661,92.9010601 C7.10444926,87.4218198 9.55955083,82.3754417 11.933875,77.4951413 C12.3448243,76.6506184 12.7438555,75.8233216 13.1353829,75.0013251 C14.3130547,75.4726148 15.5653243,75.7937279 16.8705625,75.9394876 C14.4538633,83.9213781 18.2548125,92.5998233 26.2323477,96.7009717 L27.3239454,97.2623675 L28.4804297,96.850265 C34.7872422,94.6029152 40.5983555,90.9960247 45.7530979,86.1298587 C49.0852737,82.9845406 51.948676,79.504417 54.303137,75.7857774 C55.009387,75.8922261 55.731969,75.9483216 56.4673518,75.9483216 C64.4369417,75.9483216 70.9207581,69.460689 70.9207581,61.485424 C70.9207581,57.1965548 69.0434573,53.3396643 66.0701448,50.6886042 L75.1534026,32.3087456 L84.3289143,51.0388693 C81.5758635,53.6740283 79.8557034,57.3811837 79.8557034,61.485424 C79.8557034,69.460689 86.3390784,75.9483216 94.3086682,75.9483216 C97.3707034,75.9483216 100.211153,74.9880742 102.550606,73.3564488 C104.174981,76.6837456 104.780149,80.4275618 104.133047,84.1568021 L104.133047,84.1568021 Z" id="Shape" fill="#292929"></path>
            </g>
        </g>
    </g>
</svg>