<?xml version="1.0" encoding="UTF-8"?>
<svg width="126px" height="120px" viewBox="0 0 126 120" version="1.1" xmlns="http://www.w3.org/2000/svg" xmlns:xlink="http://www.w3.org/1999/xlink">
    <!-- Generator: Sketch 43.1 (39012) - http://www.bohemiancoding.com/sketch -->
    <title>jquery</title>
    <desc>Created with Sketch.</desc>
    <defs></defs>
    <g id="Page-1" stroke="none" stroke-width="1" fill="none" fill-rule="evenodd">
        <g id="Artboard" transform="translate(-516.000000, -40.000000)" fill-rule="nonzero" fill="#F4B400">
            <g id="jquery" transform="translate(516.000000, 39.000000)">
                <path d="M8.625,29.181 C-2.404,45.032 -1.031,65.657 7.394,82.501 C7.594,82.905 7.804,83.302 8.011,83.699 L8.405,84.458 L8.651,84.895 L9.09,85.681 C9.352,86.142 9.62,86.601 9.894,87.06 L10.353,87.816 C10.657,88.307 10.968,88.792 11.286,89.276 L11.684,89.89 C12.123,90.545 12.572,91.199 13.036,91.841 L13.075,91.891 L13.303,92.199 C13.704,92.752 14.117,93.298 14.535,93.838 L14.999,94.428 C15.372,94.897 15.751,95.363 16.137,95.827 L16.572,96.347 C17.09,96.957 17.619,97.564 18.158,98.159 L18.191,98.192 L18.252,98.26 C18.779,98.835 19.318,99.397 19.864,99.959 L20.381,100.48 C20.804,100.906 21.234,101.325 21.668,101.742 L22.195,102.242 C22.775,102.789 23.361,103.325 23.959,103.849 L23.987,103.871 L24.294,104.133 C24.821,104.589 25.357,105.042 25.897,105.486 L26.561,106.015 C27.002,106.369 27.448,106.717 27.897,107.059 L28.611,107.602 C29.107,107.967 29.606,108.326 30.11,108.677 L30.656,109.064 L30.806,109.171 C31.284,109.5 31.773,109.817 32.262,110.134 L32.892,110.554 C33.642,111.028 34.402,111.497 35.171,111.95 L35.801,112.305 C36.366,112.631 36.935,112.951 37.511,113.264 C37.823,113.432 38.143,113.591 38.457,113.752 C38.864,113.965 39.268,114.181 39.682,114.388 L39.965,114.525 L40.466,114.767 C41.107,115.073 41.753,115.374 42.406,115.664 L42.816,115.848 C43.564,116.175 44.318,116.489 45.079,116.789 L45.63,117.006 C46.334,117.277 47.048,117.545 47.765,117.797 L48.033,117.89 C48.82,118.165 49.614,118.42 50.414,118.669 L50.989,118.841 C51.803,119.086 52.608,119.379 53.447,119.534 C106.786,129.261 122.28,87.481 122.28,87.481 C109.267,104.434 86.169,108.906 64.284,103.927 C63.455,103.74 62.651,103.481 61.842,103.242 L61.233,103.057 C60.443,102.815 59.66,102.56 58.881,102.292 L58.558,102.175 C57.86,101.93 57.171,101.671 56.484,101.406 L55.902,101.177 C55.15,100.88 54.402,100.57 53.663,100.246 L53.216,100.048 C52.581,99.76 51.953,99.47 51.327,99.169 L50.781,98.907 C50.29,98.668 49.804,98.414 49.32,98.164 C48.996,97.993 48.666,97.832 48.345,97.654 C47.753,97.337 47.173,97.008 46.594,96.672 L46.003,96.342 C45.234,95.89 44.475,95.421 43.723,94.945 L43.108,94.535 C42.563,94.184 42.02,93.826 41.485,93.456 L40.963,93.089 C40.447,92.724 39.936,92.355 39.429,91.98 L38.75,91.466 C38.285,91.111 37.823,90.753 37.366,90.384 L36.749,89.889 C36.167,89.41 35.593,88.93 35.025,88.436 L34.836,88.277 C34.222,87.738 33.62,87.185 33.024,86.63 L32.513,86.139 C32.072,85.719 31.638,85.296 31.211,84.862 L30.701,84.353 C30.158,83.797 29.625,83.234 29.103,82.663 L29.024,82.579 C28.472,81.975 27.932,81.358 27.403,80.735 L26.979,80.231 C26.585,79.756 26.194,79.275 25.812,78.789 L25.385,78.257 C24.926,77.661 24.477,77.068 24.038,76.463 C11.888,59.889 7.522,37.031 17.233,18.259 M42.862,15.825 C34.885,27.303 35.319,42.669 41.541,54.808 C42.584,56.843 43.757,58.818 45.069,60.697 C46.264,62.41 47.589,64.448 49.175,65.824 C49.75,66.457 50.351,67.075 50.965,67.682 L51.437,68.147 C52.033,68.725 52.638,69.293 53.265,69.845 C54.05,70.535 54.765,71.118 55.492,71.694 L55.977,72.072 C56.706,72.631 57.449,73.179 58.21,73.703 C58.611,73.984 58.953,74.2 59.294,74.424 L59.777,74.743 C60.321,75.092 60.872,75.432 61.432,75.758 L61.667,75.894 C62.15,76.172 62.639,76.446 63.13,76.712 L63.651,76.983 C63.99,77.16 64.329,77.341 64.674,77.513 C65.532,77.929 66.241,78.263 66.965,78.578 L67.437,78.772 C68.016,79.018 68.601,79.258 69.187,79.482 L69.937,79.757 C70.47,79.955 71.005,80.135 71.544,80.316 L72.271,80.549 C73.038,80.787 73.796,81.088 74.595,81.221 C115.778,88.044 125.286,56.335 125.286,56.335 C116.716,68.678 100.118,74.568 82.407,69.97 C81.62,69.763 80.845,69.539 80.074,69.296 L79.373,69.069 C78.825,68.892 78.281,68.704 77.742,68.507 L77.006,68.233 C76.414,68.005 75.83,67.771 75.25,67.525 L74.777,67.325 C74.05,67.009 73.334,66.675 72.629,66.326 C72.266,66.149 71.909,65.962 71.551,65.778 L70.929,65.458 C70.471,65.21 70.015,64.952 69.566,64.688 L69.24,64.503 C68.682,64.178 68.133,63.842 67.589,63.495 L67.091,63.163 C66.732,62.931 66.374,62.694 66.022,62.456 C65.263,61.932 64.524,61.384 63.796,60.828 L63.295,60.433 C55.543,54.313 49.397,45.947 46.476,36.462 C43.414,26.626 44.074,15.584 49.379,6.622 M71.657,5.847 C66.955,12.767 66.493,21.361 69.756,29.003 C73.197,37.116 80.247,43.479 88.476,46.498 C88.815,46.623 89.155,46.735 89.498,46.852 L89.949,46.995 C90.434,47.147 90.915,47.324 91.416,47.419 C114.156,51.813 120.324,35.75 121.965,33.385 C116.563,41.164 107.483,43.031 96.342,40.327 C95.462,40.114 94.495,39.796 93.647,39.495 C92.559,39.107 91.487,38.665 90.446,38.166 C88.468,37.215 86.582,36.062 84.834,34.742 C74.865,27.177 68.672,12.748 75.177,0.997" id="Shape"></path>
            </g>
        </g>
    </g>
</svg>