<?xml version="1.0" encoding="UTF-8"?>
<svg width="125px" height="125px" viewBox="0 0 125 125" version="1.1" xmlns="http://www.w3.org/2000/svg" xmlns:xlink="http://www.w3.org/1999/xlink">
    <!-- Generator: Sketch 43.1 (39012) - http://www.bohemiancoding.com/sketch -->
    <title>JS</title>
    <desc>Created with Sketch.</desc>
    <defs></defs>
    <g id="Page-1" stroke="none" stroke-width="1" fill="none" fill-rule="evenodd">
        <g id="Artboard" transform="translate(-41.000000, -39.000000)" fill-rule="nonzero" fill="#F4B400">
            <g id="JS" transform="translate(41.000000, 39.000000)">
                <g id="javascript-plain">
                    <path d="M0,0 L0,125 L125,125 L125,0 L0,0 Z M66.119,106.513 C64.274,110.262 60.752,112.725 56.671,113.914 C50.4,115.354 44.402,114.533 39.94,111.855 C36.954,110.023 34.622,107.203 33.039,103.954 L42.559,98.124 C42.642,98.159 42.892,98.611 43.226,99.195 C44.44,101.229 45.487,102.669 47.545,103.68 C49.567,104.37 54.006,104.811 55.72,101.253 C56.767,99.443 56.434,93.625 56.434,87.188 C56.433,77.073 56.48,67 56.48,57 L68.189,57 C68.189,68 68.249,78.418 68.189,89.152 C68.214,95.732 68.785,101.598 66.119,106.513 Z M114.693,103.205 C110.623,117.127 87.931,117.579 78.863,108.381 C76.947,106.216 75.746,105.085 74.603,102.586 C79.422,99.814 79.422,99.814 84.111,97.101 C86.658,101.016 89.013,103.169 93.25,104.05 C98.998,104.752 104.781,102.777 103.484,96.672 C102.151,91.686 91.714,90.473 84.611,85.141 C77.4,80.298 75.71,68.53 81.636,61.806 C83.611,59.319 86.979,57.463 90.513,56.571 L94.201,56.094 C101.282,55.951 105.708,57.821 108.957,61.449 C109.861,62.365 110.599,63.353 111.979,65.494 C108.207,67.898 108.219,67.875 102.816,71.373 C101.662,68.887 99.747,67.327 97.723,66.649 C94.581,65.697 90.619,66.732 89.797,70.052 C89.512,71.075 89.571,72.027 90.024,73.717 C91.297,76.62 95.569,77.882 99.401,79.643 C110.432,84.117 114.157,88.914 115.073,94.624 C115.955,99.54 114.86,102.729 114.693,103.205 L114.693,103.205 Z" id="Shape"></path>
                </g>
            </g>
        </g>
    </g>
</svg>