<?xml version="1.0" encoding="UTF-8"?>
<svg width="159px" height="96px" viewBox="0 0 159 96" version="1.1" xmlns="http://www.w3.org/2000/svg" xmlns:xlink="http://www.w3.org/1999/xlink">
    <!-- Generator: Sketch 43.1 (39012) - http://www.bohemiancoding.com/sketch -->
    <title>nextjs-icon</title>
    <desc>Created with Sketch.</desc>
    <defs></defs>
    <g id="Page-1" stroke="none" stroke-width="1" fill="none" fill-rule="evenodd">
        <g id="Artboard" transform="translate(-16.000000, -406.000000)" fill-rule="nonzero" fill="#F4B400">
            <g id="nextjs-icon" transform="translate(16.000000, 406.000000)">
                <path d="M37.5173015,25.0287566 L67.5061595,25.0287566 L67.5061595,27.4133309 L40.2662801,27.4133309 L40.2662801,45.3603908 L65.881763,45.3603908 L65.881763,47.744965 L40.2662801,47.744965 L40.2662801,67.4490796 L67.8185436,67.4490796 L67.8185436,69.8336537 L37.5173015,69.8336537 L37.5173015,25.0287566 Z M70.1926617,25.0287566 L73.3789776,25.0287566 L87.4987316,44.7328711 L101.93087,25.0287566 L121.56093,0 L89.3105584,46.8036856 L105.929384,69.8336537 L102.618115,69.8336537 L87.4987316,48.8745003 L72.3168722,69.8336537 L69.0680796,69.8336537 L85.8118584,46.8036856 L70.1926617,25.0287566 Z M107.116443,27.4133309 L107.116443,25.0287566 L141.291246,25.0287566 L141.291246,27.4133309 L125.547096,27.4133309 L125.547096,69.8336537 L122.798117,69.8336537 L122.798117,27.4133309 L107.116443,27.4133309 Z M0,25.0287566 L3.43622334,25.0287566 L50.8197322,95.9639633 L31.238394,69.8336537 L2.87393224,28.4173622 L2.74897866,69.8336537 L0,69.8336537 L0,25.0287566 Z M141.014276,66.7294661 C140.45264,66.7294661 140.031412,66.2941142 140.031412,65.731506 C140.031412,65.1688972 140.45264,64.7335453 141.014276,64.7335453 C141.582598,64.7335453 141.997139,65.1688972 141.997139,65.731506 C141.997139,66.2941142 141.582598,66.7294661 141.014276,66.7294661 Z M143.715478,64.103959 L145.186429,64.103959 C145.206487,64.900988 145.788182,65.4368059 146.644008,65.4368059 C147.600126,65.4368059 148.141704,64.8608016 148.141704,63.7824683 L148.141704,56.9507924 L149.6394,56.9507924 L149.6394,63.7891663 C149.6394,65.731506 148.516128,66.850025 146.65738,66.850025 C144.912297,66.850025 143.715478,65.7649945 143.715478,64.103959 Z M151.59844,64.0168892 L153.082763,64.0168892 C153.2098,64.934477 154.105743,65.5171787 155.396169,65.5171787 C156.599675,65.5171787 157.482246,64.8942906 157.482246,64.0369821 C157.482246,63.300233 156.92061,62.8581831 155.643556,62.5567854 L154.399934,62.2553883 C152.65485,61.8468269 151.859199,61.0029139 151.859199,59.5829971 C151.859199,57.8616823 153.26329,56.7163722 155.369424,56.7163722 C157.328464,56.7163722 158.759299,57.8616823 158.846219,59.4892287 L157.38864,59.4892287 C157.248231,58.598432 156.472638,58.0425212 155.349366,58.0425212 C154.165919,58.0425212 153.376954,58.6118273 153.376954,59.4825314 C153.376954,60.1723964 153.8851,60.5675619 155.142096,60.8622621 L156.205192,61.1234728 C158.184291,61.5856162 159,62.3893421 159,63.8427483 C159,65.6913196 157.569166,66.850025 155.282505,66.850025 C153.142939,66.850025 151.705418,65.744901 151.59844,64.0168892 Z" id="Shape"></path>
            </g>
        </g>
    </g>
</svg>