<?xml version="1.0" encoding="UTF-8"?>
<svg width="107px" height="122px" viewBox="0 0 107 122" version="1.1" xmlns="http://www.w3.org/2000/svg" xmlns:xlink="http://www.w3.org/1999/xlink">
    <!-- Generator: Sketch 43.1 (39012) - http://www.bohemiancoding.com/sketch -->
    <title>nodejs-original</title>
    <desc>Created with Sketch.</desc>
    <defs></defs>
    <g id="Page-1" stroke="none" stroke-width="1" fill="none" fill-rule="evenodd">
        <g id="Artboard" transform="translate(-986.000000, -43.000000)" fill-rule="nonzero" fill="#F4B400">
            <g id="nodejs-original" transform="translate(986.000000, 43.000000)">
                <path d="M102.771,27.334 L58.674,1.729 C55.893,0.145 52.272,0.145 49.469,1.729 L4.901,27.334 C2.031,28.985 0,32.088 0,35.407 L0,86.549 C0,89.868 2.084,92.972 4.954,94.632 L16.729,101.32 C22.357,104.092 24.346,104.092 26.907,104.092 C35.24,104.092 40,99.053 40,90.264 L40,39.774 C40,39.061 39.629,38 38.929,38 L33.306,38 C32.594,38 31,39.061 31,39.773 L31,90.263 C31,94.159 27.476,98.036 20.89,94.743 L8.723,87.73 C8.299,87.5 8,87.037 8,86.549 L8,35.407 C8,34.925 8.555,34.441 8.982,34.194 L53.406,8.633 C53.821,8.398 54.431,8.398 54.845,8.633 L98.727,34.188 C99.147,34.441 98.999,34.91 98.999,35.407 L98.999,86.549 C98.999,87.037 99.182,87.512 98.767,87.747 L54.681,113.323 C54.303,113.55 53.834,113.55 53.42,113.323 L42.113,106.574 C41.772,106.376 41.367,106.305 41.04,106.488 C37.894,108.271 37.314,108.508 34.363,109.531 C33.637,109.784 32.566,110.223 34.773,111.46 L49.571,120.214 C50.988,121.034 52.598,121.46 54.218,121.46 C55.86,121.46 57.468,121.034 58.885,120.214 L102.77,94.632 C105.64,92.96 107,89.868 107,86.549 L107,35.407 C107,32.088 105.64,28.993 102.771,27.334 L102.771,27.334 Z M67.91,78.445 C56.184,78.445 53.601,75.21 52.74,69.379 C52.64,68.751 52.107,68 51.468,68 L45.737,68 C45.028,68 44.458,68.86 44.458,69.566 C44.458,77.032 48.517,86.078 67.911,86.078 C81.95,86.078 89.999,80.623 89.999,70.969 C89.999,61.397 83.532,58.885 69.917,57.083 C56.155,55.264 54.757,54.345 54.757,51.121 C54.757,48.463 55.941,44.918 66.131,44.918 C75.236,44.918 78.592,46.872 79.973,53.009 C80.091,53.586 80.618,54 81.213,54 L86.967,54 C87.321,54 87.659,53.857 87.907,53.604 C88.147,53.332 88.274,52.991 88.242,52.625 C87.351,42.057 80.33,37.132 66.13,37.132 C53.499,37.132 45.964,42.466 45.964,51.407 C45.964,61.105 53.461,63.785 65.586,64.984 C80.091,66.406 81.219,68.526 81.219,71.379 C81.219,76.334 77.241,78.445 67.91,78.445 Z" id="Shape"></path>
            </g>
        </g>
    </g>
</svg>