<?xml version="1.0" encoding="UTF-8"?>
<svg width="124px" height="124px" viewBox="0 0 124 124" version="1.1" xmlns="http://www.w3.org/2000/svg" xmlns:xlink="http://www.w3.org/1999/xlink">
    <!-- Generator: Sketch 43.1 (39012) - http://www.bohemiancoding.com/sketch -->
    <title>rails-plain</title>
    <desc>Created with Sketch.</desc>
    <defs></defs>
    <g id="Page-1" stroke="none" stroke-width="1" fill="none" fill-rule="evenodd">
        <g id="Artboard" transform="translate(-45.000000, -238.000000)" fill="#F4B400">
            <g id="rails-plain" transform="translate(44.000000, 238.000000)">
                <path d="M108.682,12.737 C96.476,6.714 83.974,6.101 71.174,10.626 C59.395,14.79 49.999,22.241 43.014,32.389 C31.195,49.561 22.61,68.298 17.799,88.652 C15.335,99.069 13.739,110.118 14.168,120.876 C14.203,121.749 14.333,122 14.419,124 L74.785,124 C74.612,122 74.498,122.584 74.348,122.203 C71.173,114.097 68.659,105.537 66.92,97.005 C64.422,84.754 63.114,72.276 65.694,59.912 C69.305,42.599 79.174,30.107 95.811,23.629 C105.235,19.962 114.18,21.005 122.025,27.891 C122.097,27.954 122.245,27.916 122.437,27.947 L125.002,24.064 C120.062,19.361 114.634,15.675 108.682,12.737 L108.682,12.737 Z M2.336,92.394 C1.876,96.317 1.446,99.99 0.996,103.845 L12.128,105.181 L14.167,93.288 C10.112,92.981 6.261,92.69 2.336,92.394 L2.336,92.394 Z M24.186,58.208 L13.715,54.111 L10.331,63.718 L21.002,67.138 C22.082,64.107 23.098,61.256 24.186,58.208 L24.186,58.208 Z M73.605,111.867 C77.18,112.133 80.762,112.316 84.708,112.546 C83.275,109.567 82.002,106.873 80.669,104.211 C80.523,103.922 80.03,103.643 79.695,103.638 C76.662,103.594 73.627,103.613 70.404,103.613 C71.13,106.241 71.761,108.666 72.5,111.056 C72.611,111.417 73.207,111.838 73.605,111.867 L73.605,111.867 Z M41.933,29.103 L33.978,23.835 C31.846,26.218 29.79,28.515 27.619,30.94 L35.797,36.436 L41.933,29.103 Z M67.267,82.472 C67.254,82.793 67.543,83.304 67.825,83.431 C70.69,84.719 73.585,85.946 76.737,87.304 C76.606,84.812 76.518,82.729 76.369,80.65 C76.342,80.276 76.166,79.738 75.889,79.584 C73.258,78.128 70.59,76.737 67.673,75.189 C67.514,77.854 67.352,80.161 67.267,82.472 L67.267,82.472 Z M64.91,10.3 L59.464,4.119 L51.965,8.017 C53.841,10.303 55.612,12.46 57.42,14.661 L64.91,10.3 Z M68.325,59.476 C68.162,59.85 68.377,60.643 68.698,60.932 C70.873,62.894 73.122,64.772 75.624,66.913 C76.197,64.513 76.737,62.374 77.195,60.22 C77.276,59.837 77.163,59.204 76.897,58.99 C74.951,57.421 72.942,55.927 70.86,54.339 C69.945,56.154 69.058,57.782 68.325,59.476 Z M80.775,7.052 C83.555,7.127 86.338,7.094 89.274,7.094 C88.981,5.05 88.841,3.501 88.492,2.002 C88.388,1.556 87.717,0.962 87.264,0.924 C84.477,0.698 81.679,0.611 78.613,0.465 C79.022,2.528 79.334,4.346 79.775,6.133 C79.868,6.512 80.422,7.042 80.775,7.052 L80.775,7.052 Z M84.16,42.727 C84.302,42.461 84.338,41.978 84.189,41.746 C82.823,39.609 81.404,37.505 79.935,35.291 L75.175,39.663 L81.757,46.957 C82.641,45.418 83.432,44.089 84.16,42.727 L84.16,42.727 Z M89.295,28.2 L92.138,33.481 C96.587,31.043 97.013,30.161 95.438,26.647 L89.295,28.2 L89.295,28.2 Z M110.582,11.927 C112.433,13.069 114.388,14.042 116.374,15.112 L117.704,13.042 C115.282,11.271 112.944,9.558 110.291,7.616 C110.187,8.72 110.032,9.491 110.072,10.253 C110.104,10.834 110.201,11.693 110.582,11.927 L110.582,11.927 Z M108,28.646 C110,28.863 113,29.07 115,29.289 L115,26.571 C113,26.133 110,25.699 108,25.248 L108,28.646 Z" id="Shape"></path>
            </g>
        </g>
    </g>
</svg>