<?xml version="1.0" encoding="UTF-8"?>
<svg width="126px" height="112px" viewBox="0 0 126 112" version="1.1" xmlns="http://www.w3.org/2000/svg" xmlns:xlink="http://www.w3.org/1999/xlink">
    <!-- Generator: Sketch 43.1 (39012) - http://www.bohemiancoding.com/sketch -->
    <title>react-icon</title>
    <desc>Created with Sketch.</desc>
    <defs></defs>
    <g id="Page-1" stroke="none" stroke-width="1" fill="none" fill-rule="evenodd">
        <g id="Artboard" transform="translate(-672.000000, -39.000000)" fill-rule="nonzero" fill="#F4B400">
            <g id="react-icon" transform="translate(672.000000, 39.000000)">
                <circle id="Oval" cx="63" cy="56" r="11.4"></circle>
                <path d="M106.3,37.2 C104.1,36.4 101.8,35.6 99.4,34.9 C100,32.5 100.5,30.1 100.9,27.8 C103,14.6 100.7,5.3 94.3,1.7 C92.4,0.6 90.3,0.1 87.9,0.1 C80.9,0.1 72,5.3 63,14 C54,5.3 45.1,0.1 38.1,0.1 C35.7,0.1 33.6,0.6 31.7,1.7 C25.3,5.4 23,14.7 25.1,27.8 C25.5,30.1 26,32.5 26.6,34.9 C24.2,35.6 21.9,36.3 19.7,37.2 C7.2,42 0.4,48.6 0.4,56 C0.4,63.4 7.3,70 19.7,74.8 C21.9,75.6 24.2,76.4 26.6,77.1 C26,79.5 25.5,81.9 25.1,84.2 C23,97.4 25.3,106.7 31.7,110.3 C33.6,111.4 35.7,111.9 38.1,111.9 C45.2,111.9 54.1,106.7 63,98 C72,106.7 80.9,111.9 87.9,111.9 C90.3,111.9 92.4,111.4 94.3,110.3 C100.7,106.6 103,97.3 100.9,84.2 C100.5,81.9 100,79.5 99.4,77.1 C101.8,76.4 104.1,75.7 106.3,74.8 C118.8,70 125.6,63.4 125.6,56 C125.6,48.6 118.8,42 106.3,37.2 Z M91.5,6.7 C95.6,9.1 97,16.5 95.3,27 C95,29.1 94.5,31.3 93.9,33.6 C88.7,32.4 83.2,31.6 77.4,31.1 C74,26.3 70.5,22 67,18.1 C74.4,10.8 81.9,5.8 88,5.8 C89.3,5.8 90.5,6.1 91.5,6.7 L91.5,6.7 Z M80.3,66 C78.5,69.2 76.4,72.4 74.2,75.6 C70.5,75.9 66.8,76 63,76 C59.1,76 55.4,75.9 51.8,75.6 C49.6,72.4 47.6,69.2 45.8,66 C43.9,62.7 42.1,59.3 40.5,56 C42.1,52.7 43.9,49.3 45.8,46 C47.6,42.8 49.7,39.6 51.9,36.4 C55.6,36.1 59.3,36 63.1,36 C67,36 70.7,36.1 74.3,36.4 C76.5,39.6 78.5,42.8 80.3,46 C82.2,49.3 84,52.7 85.6,56 C83.9,59.3 82.2,62.6 80.3,66 Z M88.6,62.7 C90.1,66.2 91.3,69.6 92.4,73 C89,73.8 85.4,74.4 81.6,74.9 C82.8,73 84.1,71 85.2,68.9 C86.4,66.8 87.5,64.7 88.6,62.7 Z M63,89.8 C60.6,87.2 58.3,84.4 56.1,81.5 C58.4,81.6 60.7,81.7 63,81.7 C65.3,81.7 67.6,81.6 69.9,81.5 C67.7,84.4 65.4,87.2 63,89.8 Z M44.4,74.8 C40.6,74.3 37,73.7 33.6,72.9 C34.7,69.6 35.9,66.1 37.4,62.6 C38.5,64.6 39.6,66.7 40.8,68.7 C42,70.9 43.2,72.8 44.4,74.8 L44.4,74.8 Z M37.4,49.3 C35.9,45.8 34.7,42.4 33.6,39 C37,38.2 40.6,37.6 44.4,37.1 C43.2,39 41.9,41 40.8,43.1 C39.6,45.2 38.5,47.3 37.4,49.3 L37.4,49.3 Z M63,22.2 C65.4,24.8 67.7,27.6 69.9,30.5 C67.6,30.4 65.3,30.3 63,30.3 C60.7,30.3 58.4,30.4 56.1,30.5 C58.3,27.6 60.6,24.8 63,22.2 Z M85.2,43.2 L81.6,37.2 C85.4,37.7 89,38.3 92.4,39.1 C91.3,42.4 90.1,45.9 88.6,49.4 C87.5,47.3 86.4,45.2 85.2,43.2 L85.2,43.2 Z M30.7,27 C29,16.5 30.4,9.1 34.5,6.7 C35.5,6.1 36.7,5.8 38,5.8 C44,5.8 51.5,10.7 59,18.1 C55.5,21.9 52,26.3 48.6,31.1 C42.8,31.6 37.3,32.5 32.1,33.6 C31.5,31.3 31.1,29.1 30.7,27 Z M6,56 C6,51.3 11.7,46.3 21.7,42.6 C23.7,41.8 25.9,41.1 28.1,40.5 C29.7,45.5 31.7,50.8 34.1,56.1 C31.7,61.4 29.6,66.6 28.1,71.6 C14.3,67.6 6,61.6 6,56 L6,56 Z M34.5,105.3 C30.4,102.9 29,95.5 30.7,85 C31,82.9 31.5,80.7 32.1,78.4 C37.3,79.6 42.8,80.4 48.6,80.9 C52,85.7 55.5,90 59,93.9 C51.6,101.2 44.1,106.2 38,106.2 C36.7,106.2 35.5,105.9 34.5,105.3 Z M95.3,85 C97,95.5 95.6,102.9 91.5,105.3 C90.5,105.9 89.3,106.2 88,106.2 C82,106.2 74.5,101.3 67,93.9 C70.5,90.1 74,85.7 77.4,80.9 C83.2,80.4 88.7,79.5 93.9,78.4 C94.5,80.7 94.9,82.9 95.3,85 L95.3,85 Z M104.3,69.4 C102.3,70.2 100.1,70.9 97.9,71.5 C96.3,66.5 94.3,61.2 91.9,55.9 C94.3,50.6 96.4,45.4 97.9,40.4 C111.7,44.4 120,50.4 120,56 C120,60.7 114.2,65.7 104.3,69.4 L104.3,69.4 Z" id="Shape"></path>
            </g>
        </g>
    </g>
</svg>