<?xml version="1.0" encoding="UTF-8"?>
<svg width="128px" height="122px" viewBox="0 0 128 122" version="1.1" xmlns="http://www.w3.org/2000/svg" xmlns:xlink="http://www.w3.org/1999/xlink">
    <!-- Generator: Sketch 43.1 (39012) - http://www.bohemiancoding.com/sketch -->
    <title>redux-original</title>
    <desc>Created with Sketch.</desc>
    <defs></defs>
    <g id="Page-1" stroke="none" stroke-width="1" fill="none" fill-rule="evenodd">
        <g id="Artboard" transform="translate(-828.000000, -42.000000)">
            <g id="redux-original" transform="translate(828.000000, 39.000000)">
                <polygon id="Shape" points="0 0 128 0 128 128 0 128"></polygon>
                <path d="M88.69,88.11 C79.69,106.51 63.93,118.89 43.08,122.96 C39.8831274,123.743229 36.6013155,124.126163 33.31,124.1 C21.31,124.1 10.31,119.1 4.97,110.91 C-2.2,100 -4.64,76.87 19,59.76 C19.48,62.37 20.46,65.95 21.11,68.07 C16.4693272,71.5176766 12.6707699,75.9726902 10,81.1 C5.6,89.74 6.09,98.37 11.3,106.35 C14.9,111.73 20.6,115 27.93,116 C37.0853565,117.158825 46.3733257,115.409678 54.48,111 C67.19,104.32 75.66,96.34 81.2,85.43 C79.6334704,83.811152 78.7062898,81.6797023 78.59,79.43 C78.4156512,74.4033675 82.3437293,70.1844863 87.37,70 L87.71,70 C92.5865482,69.9755657 96.6253296,73.7799613 96.8921408,78.6492663 C97.1589521,83.5185712 93.5600225,87.7414715 88.71,88.25 L88.69,88.11 Z M117.36,67.91 C129.57,81.75 129.9,98.04 125.18,107.49 C120.78,116.12 109.18,124.76 93.58,124.76 C86.2976418,124.61145 79.1336823,122.888688 72.58,119.71 C74.87,118.08 78.12,115.47 79.91,113.84 C84.963867,116.029438 90.4026791,117.191984 95.91,117.26 C106.01,117.26 113.66,112.54 118.22,103.91 C121.15,98.21 121.32,91.53 118.55,84.69 C115.151055,76.0838486 109.102834,68.7818559 101.28,63.84 C91.0166817,56.921445 78.9174724,53.2331713 66.54,53.25 L63.61,53.25 C62.2161936,56.4696747 59.1141907,58.6178117 55.61,58.79 L55.3,58.79 C50.3601404,58.7292809 46.3646461,54.750317 46.2834478,49.8107515 C46.2022494,44.8711861 50.064805,40.7630488 55,40.54 L55.33,40.54 C58.7021924,40.5425262 61.7900327,42.4299686 63.33,45.43 L65.94,45.43 C86.74,45.43 105,53.41 117.36,67.91 L117.36,67.91 Z M34.61,90.91 C34.4387552,89.2494154 34.8410507,87.5802419 35.75,86.18 C26.63,70.38 21.75,50.35 29.24,29.5 C34.61,13.83 48.13,3.24 62.79,3.24 C78.43,3.24 94.72,16.93 96.67,43.31 C94.23,42.5 90.67,41.31 88.53,40.87 C88,32.24 80.71,10.74 63.44,11.06 C57.25,11.23 48.13,14.16 43.44,20.18 C37.6386289,27.366203 34.2637556,36.2059905 33.8,45.43 C32.7007119,58.0777527 35.6681146,70.7461449 42.27,81.59 C42.6344566,81.4568376 43.0229676,81.4023098 43.41,81.43 L43.73,81.43 C46.9882622,81.3710512 50.0304694,83.0548424 51.7106517,85.8471058 C53.390834,88.6393692 53.4537316,92.1158936 51.8756517,94.9671058 C50.2975718,97.818318 47.3182622,99.6110512 44.06,99.67 L43.73,99.67 C38.8276098,99.6525918 34.8079927,95.7784213 34.61,90.88 L34.61,90.91 Z" id="Shape" fill="#F4B400" fill-rule="nonzero"></path>
            </g>
        </g>
    </g>
</svg>