<?xml version="1.0" encoding="UTF-8"?>
<svg width="125px" height="120px" viewBox="0 0 125 120" version="1.1" xmlns="http://www.w3.org/2000/svg" xmlns:xlink="http://www.w3.org/1999/xlink">
    <!-- Generator: Sketch 43.1 (39012) - http://www.bohemiancoding.com/sketch -->
    <title>ruby-plain</title>
    <desc>Created with Sketch.</desc>
    <defs></defs>
    <g id="Page-1" stroke="none" stroke-width="1" fill="none" fill-rule="evenodd">
        <g id="Artboard" transform="translate(-1516.000000, -38.000000)" fill="#F4B400">
            <g id="ruby-plain" transform="translate(1515.000000, 38.000000)">
                <path d="M34.971,107.33 C62.437,111.08 89.415,114.763 116.929,118.518 C107.555,102.912 98.422,87.705 89.216,72.374 L34.971,107.33 L34.971,107.33 Z M124.681,20.947 C122.26,24.583 119.834,28.216 117.416,31.854 C109.112,44.347 100.809,56.84 92.513,69.339 C92.051,70.035 91.452,70.587 92.103,71.66 C100.119,84.897 108.072,98.173 116.045,111.437 C117.303,113.532 118.575,115.619 120.202,117.629 C121.814,85.436 123.425,53.242 125.036,21.049 L124.681,20.947 L124.681,20.947 Z M15.252,62.22 C15.627,62.575 16.563,62.782 16.999,62.567 C24.688,58.788 32.426,55.093 39.947,51.003 C42.4,49.67 44.286,47.28 46.399,45.342 C53.396,38.925 60.382,32.495 67.365,26.064 C67.792,25.669 68.298,25.287 68.553,24.789 C71.061,19.887 73.526,14.96 76.078,9.891 C73.035,8.747 70.15,7.628 67.229,6.61 C66.833,6.472 66.209,6.746 65.78,6.985 C59.019,10.762 52.131,14.338 45.585,18.457 C42.31,20.518 39.642,23.555 36.742,26.2 C32.068,30.466 27.4,34.742 22.794,39.082 C21.572,40.234 20.458,41.55 19.506,42.936 C16.356,47.523 13.3,52.176 10.104,56.961 C11.89,58.808 13.514,60.574 15.252,62.22 L15.252,62.22 Z M43.354,55.949 C39.529,72.108 35.727,88.176 31.798,104.772 C50.221,92.901 68.219,81.304 86.098,69.785 C71.87,65.18 57.688,60.589 43.354,55.949 Z M119.985,21.103 C104.419,23.704 89.225,26.242 73.835,28.813 C79.077,41.564 84.214,54.059 89.497,66.909 C99.718,51.55 109.737,36.499 119.985,21.103 L119.985,21.103 Z M43.996,52.644 C58.013,57.194 71.751,61.654 85.888,66.244 C80.638,53.454 75.568,41.111 70.393,28.507 C61.578,36.566 52.895,44.506 43.996,52.644 Z M15.831,71.643 C10.86,83.526 6.058,95.005 1.169,106.691 C10.565,106.413 19.673,106.144 29.094,105.866 C24.671,94.454 20.335,83.266 15.831,71.643 L15.831,71.643 Z M29.424,97.739 L29.77,97.663 C33.123,83.722 36.524,69.877 39.947,55.391 C32.311,59.36 25.027,63.145 17.544,67.035 C21.363,76.961 25.435,87.432 29.424,97.739 L29.424,97.739 Z M114.351,18.842 C109.892,17.661 105.433,16.476 100.972,15.303 C94.56,13.617 88.143,11.952 81.735,10.251 C80.934,10.038 80.355,9.899 79.884,10.864 C77.619,15.504 75.284,20.109 72.983,24.732 C72.912,24.875 72.927,25.06 72.872,25.419 C86.758,23.315 100.551,21.224 114.342,19.134 L114.351,18.842 Z M88.482,8.288 L124.825,18.342 C122.741,12.403 120.808,6.896 118.82,1.232 L88.535,7.947 L88.482,8.288 L88.482,8.288 Z M32.505,110.007 C28.004,109.488 23.383,109.965 18.818,110.044 C15.068,110.107 11.318,110.25 7.568,110.367 C7.182,110.379 6.797,110.457 6.412,110.873 C37.415,113.739 68.417,116.605 99.419,119.473 L99.482,119.059 C89.544,117.702 79.605,116.345 69.667,114.989 C57.283,113.298 44.92,111.438 32.505,110.007 L32.505,110.007 Z M1.782,95.994 C5.777,86.724 9.755,77.448 13.766,68.185 C14.167,67.256 14.136,66.625 13.351,65.877 C11.673,64.28 10.114,62.559 8.28,60.651 C5.801,72.891 3.383,84.828 0.963,96.764 L1.234,96.891 C1.419,96.594 1.645,96.313 1.782,95.994 L1.782,95.994 Z M80.522,5.841 C87.259,4.103 94.094,2.744 100.889,1.228 C101.329,1.129 101.759,0.984 102.192,0.86 L102.125,0.528 C92.554,1.815 82.984,3.103 72.931,4.456 C75.672,5.653 77.784,6.547 80.522,5.841 Z" id="Shape"></path>
            </g>
        </g>
    </g>
</svg>