<svg width="100" height="61" viewBox="0 0 100 61" fill="none" xmlns="http://www.w3.org/2000/svg">
<path d="M53.4175 22.3947C53.417 21.7048 53.5984 21.0269 53.9434 20.4294C54.2884 19.8319 54.7847 19.3359 55.3825 18.9913C55.9802 18.6468 56.6582 18.4658 57.3481 18.4668C58.0381 18.4677 58.7156 18.6504 59.3124 18.9966C62.8696 17.6907 66.8313 17.0074 70.9506 17.0074C81.9813 17.0074 91.4425 21.9342 94.6407 29.0244C94.6134 30.703 92.2288 31.4847 91.2774 30.4545C88.6549 24.7597 80.3709 20.6601 70.9506 20.6601C67.5267 20.6601 64.2407 21.1827 61.2652 22.1811C61.2944 22.7054 61.2181 23.2301 61.0409 23.7244C60.8637 24.2186 60.5892 24.6723 60.2336 25.0586C59.878 25.4449 59.4486 25.756 58.9707 25.9734C58.4928 26.1909 57.9761 26.3103 57.4512 26.3246C56.9264 26.3389 56.404 26.2477 55.915 26.0566C55.4259 25.8655 54.9802 25.5782 54.6041 25.2119C54.228 24.8455 53.9293 24.4074 53.7254 23.9235C53.5216 23.4396 53.4169 22.9198 53.4175 22.3947ZM97.5237 37.0054C97.5241 36.3789 97.3746 35.7614 97.0877 35.2045C96.8008 34.6476 96.3848 34.1674 95.8744 33.804C95.3641 33.4406 94.7742 33.2046 94.1541 33.1157C93.5339 33.0268 92.9015 33.0876 92.3097 33.293C91.7178 33.4983 91.1836 33.8423 90.7518 34.2962C90.32 34.7501 90.003 35.3007 89.8274 35.902C89.6518 36.5034 89.6226 37.138 89.7423 37.753C89.8619 38.3679 90.127 38.9453 90.5153 39.4369C89.2609 41.3655 87.3111 43.1123 84.8129 44.5152C80.9541 46.6786 76.0319 47.8709 70.9491 47.8709C66.548 47.8709 62.3227 46.9998 58.7261 45.3484C56.296 44.2319 54.275 42.823 52.7645 41.2004C51.7631 40.6171 49.4482 42.4775 50.2875 43.8956C54.8234 48.6133 62.5166 51.5251 70.9491 51.5251C76.647 51.5251 82.2055 50.1677 86.6006 47.7012C89.8214 45.8938 92.3212 43.5532 93.8938 40.9201C94.8806 40.8446 95.8026 40.3995 96.4755 39.6737C97.1485 38.948 97.5228 37.9951 97.5237 37.0054Z" fill="#F4B400"/>
<path d="M21.869 44.3744C18.2875 39.7309 16.259 33.1785 16.259 26.1034C16.259 19.6647 17.9573 13.588 21.0403 8.99152C24.2718 4.16928 28.6441 1.515 33.3497 1.515C37.6386 1.515 41.7276 3.77538 44.8652 7.878C47.827 11.7534 49.7541 17.0392 50.2889 22.7644C49.0176 22.0619 47.707 21.4331 46.3635 20.8812C44.844 11.7806 39.4869 5.16766 33.3497 5.16766C29.9 5.16766 26.6049 7.24776 24.0718 11.0262C21.3887 15.0273 19.9101 20.3828 19.9101 26.105C19.9101 32.3952 21.769 38.3674 24.9248 42.3518C25.7977 42.2649 26.6746 42.4728 27.4157 42.9423C28.1567 43.4119 28.7192 44.1161 29.0134 44.9425C29.3075 45.769 29.3165 46.6702 29.0388 47.5024C28.7611 48.3346 28.2128 49.0498 27.4812 49.534C26.7497 50.0182 25.877 50.2434 25.0025 50.1739C24.128 50.1043 23.302 49.744 22.6562 49.1502C22.0103 48.5565 21.5819 47.7636 21.4393 46.898C21.2966 46.0324 21.4479 45.1439 21.869 44.3744ZM49.8101 25.0111C43.3987 21.3085 36.2448 19.8389 30.3242 20.8722C29.699 20.258 28.8862 19.8706 28.0154 19.7717C27.1446 19.6728 26.2657 19.8681 25.5186 20.3265C24.7716 20.7848 24.1994 21.4799 23.8931 22.3011C23.5868 23.1223 23.564 24.0223 23.8284 24.858C24.0927 25.6936 24.629 26.4167 25.3519 26.9123C26.0748 27.4079 26.9426 27.6474 27.8174 27.5927C28.6921 27.5381 29.5234 27.1923 30.1789 26.6105C30.8344 26.0288 31.2765 25.2444 31.4347 24.3824C36.4175 23.6461 42.4669 24.9884 47.9831 28.1745C54.7203 32.0635 59.4849 38.1007 60.4167 43.6987C61.5787 44.1835 62.8467 44.5986 64.2193 44.9213C63.8618 37.6493 58.282 29.9 49.8101 25.0111ZM50.7782 55.2808C47.2422 55.7308 43.2305 55.1687 39.2854 53.6931C38.1522 54.5688 36.9523 55.3899 35.6919 56.1489C39.8823 58.073 44.2728 59.0835 48.3451 59.0835C49.3314 59.0835 50.301 59.0244 51.2418 58.9047C56.1186 58.2851 59.9834 56.0853 62.2059 52.6856C60.948 52.3809 59.7087 52.004 58.4941 51.557C56.7837 53.5522 54.1036 54.8581 50.7782 55.2808ZM46.868 40.9308C47.7453 40.9213 48.5941 40.6184 49.2792 40.0703C49.9642 39.5222 50.4459 38.7605 50.6476 37.9066C50.8492 37.0528 50.7591 36.156 50.3917 35.3594C50.0242 34.5627 49.4006 33.9121 48.6202 33.5112C47.8398 33.1103 46.9477 32.9823 46.0861 33.1475C45.2245 33.3128 44.443 33.7618 43.8664 34.423C43.2897 35.0842 42.9511 35.9194 42.9045 36.7955C42.8579 37.6716 43.106 38.5381 43.6092 39.2567C42.8624 41.0535 41.767 42.8518 40.3702 44.5652C38.2098 47.2135 35.3692 49.595 32.1558 51.4509C27.6699 54.0431 22.8386 55.4338 18.3951 55.4323C17.9315 55.4323 17.471 55.4172 17.0165 55.3869C12.4775 55.0824 9.02938 53.2689 7.30379 50.2828C4.24652 44.9864 7.2947 37.0205 14.4031 31.162C14.2283 29.8585 14.1221 28.5468 14.0849 27.2321L13.8834 26.9519C9.25359 30.2803 5.69335 34.5768 3.85565 39.0461C1.90888 43.782 2.01038 48.4209 4.14047 52.1084C6.49327 56.1823 10.9792 58.6426 16.771 59.032C17.3028 59.0668 17.8406 59.085 18.383 59.085C23.4658 59.085 28.9425 57.5245 33.9814 54.6142C39.9884 51.1479 44.6001 46.1969 46.868 40.9308Z" fill="#F4B400"/>
</svg>
