<?xml version="1.0" encoding="UTF-8"?>
<svg width="126px" height="94px" viewBox="0 0 126 94" version="1.1" xmlns="http://www.w3.org/2000/svg" xmlns:xlink="http://www.w3.org/1999/xlink">
    <!-- Generator: Sketch 43.1 (39012) - http://www.bohemiancoding.com/sketch -->
    <title>sass-original</title>
    <desc>Created with Sketch.</desc>
    <defs></defs>
    <g id="Page-1" stroke="none" stroke-width="1" fill="none" fill-rule="evenodd">
        <g id="Artboard" transform="translate(-826.000000, -382.000000)" fill="#F4B400">
            <g id="sass-original" transform="translate(826.000000, 382.000000)">
                <path d="M0.219,39.156 C0.219,39.859 0.426,40.323 0.542,40.774 C1.298,43.707 2.923,46.224 4.851,48.52 C7.597,51.792 10.96,54.426 14.405,56.903 C17.393,59.051 20.442,61.151 23.442,63.283 C23.957,63.649 24.444,64.07 25.003,64.519 C24.522,64.779 24.122,65.008 23.706,65.219 C19.747,67.227 15.938,69.478 12.427,72.205 C10.311,73.849 8.265,75.596 6.82,77.879 C4.495,81.551 3.672,85.463 5.405,89.64 C5.911,90.86 6.683,91.914 7.772,92.693 C8.125,92.945 8.521,93.195 8.934,93.293 C9.992,93.542 11.07,93.705 12.141,93.902 L15.174,93.9 C18.528,93.601 21.581,92.452 24.34,90.548 C28.652,87.572 31.557,83.582 32.806,78.461 C33.714,74.739 33.751,71.013 32.681,67.308 C32.582,66.964 32.457,66.627 32.327,66.294 C32.197,65.961 32.044,65.637 31.864,65.222 L38.74,61.268 L38.843,61.356 C38.718,61.765 38.585,62.173 38.472,62.586 C37.655,65.57 37.112,68.606 37.307,71.703 C37.515,75.003 38.436,78.092 40.368,80.849 C41.93,83.079 45.652,83.162 47.312,80.924 C47.901,80.129 48.472,79.298 48.901,78.411 C50.022,76.096 51.06,73.74 52.131,71.4 L52.318,70.972 C52.241,72.08 52.151,73.053 52.11,74.027 C52.046,75.548 52.135,77.06 52.655,78.507 C53.1,79.745 53.857,80.67 55.275,80.833 C56.245,80.944 57.018,80.5 57.731,79.937 C58.845,79.058 59.75,77.972 60.422,76.738 C62.323,73.247 64.275,69.777 65.998,66.198 C67.862,62.327 69.492,58.343 71.223,54.406 L71.509,53.708 C71.918,55.315 72.203,56.889 72.728,58.379 C73.338,60.108 74.093,61.796 74.915,63.437 C75.304,64.212 75.259,64.715 74.72,65.365 C72.464,68.085 70.247,70.838 68.028,73.588 C67.537,74.195 67.048,74.813 66.639,75.476 C66.392,75.879 66.228,76.37 66.159,76.84 C66.026,77.738 66.581,78.604 67.542,78.811 C68.42,79 69.355,79.07 70.25,79.004 C73.347,78.776 76.159,77.689 78.645,75.847 C81.866,73.461 82.9,70.205 82.12,66.346 C81.909,65.299 81.536,64.281 81.173,63.272 C81.01,62.817 80.999,62.498 81.296,62.074 C83.871,58.397 86.071,54.496 88.117,50.505 C88.198,50.348 88.281,50.191 88.423,50.023 C89.086,53.473 90.084,56.798 91.872,59.815 C90.96,60.694 90.057,61.491 89.24,62.369 C87.441,64.303 85.881,66.403 85.067,68.964 C84.717,70.068 84.448,71.19 84.604,72.369 C84.846,74.2 86.346,75.39 88.147,74.973 C92.001,74.081 95.328,72.265 97.759,69.048 C99.395,66.882 99.544,64.466 98.859,61.935 C98.671,61.247 98.448,60.57 98.208,59.781 C99.159,59.486 100.086,59.132 101.045,58.913 C106.024,57.777 110.949,57.975 115.747,59.773 C118.548,60.823 120.811,62.58 122.153,65.344 C123.792,68.723 122.886,71.929 119.701,74.065 C119.404,74.264 119.064,74.421 118.818,74.67 C118.667,74.823 118.576,75.129 118.613,75.34 C118.634,75.463 118.959,75.617 119.146,75.615 C120.193,75.607 121.042,75.058 121.857,74.494 C123.899,73.081 125.389,71.18 125.71,68.677 L125.773,68.489 L125.696,66.859 C125.665,66.765 125.719,66.672 125.712,66.601 C125.278,62.956 123.331,60.129 120.499,57.913 C117.219,55.348 113.346,54.292 109.25,54.125 C105.912,53.989 102.631,54.485 99.485,55.628 C98.588,55.953 97.699,56.338 96.797,56.701 C96.676,56.482 96.546,56.272 96.439,56.055 C95.513,54.159 94.391,52.347 94.143,50.173 C93.967,48.629 93.751,47.087 94.118,45.56 C94.471,44.091 94.931,42.647 95.364,41.198 C95.587,40.452 95.43,40.034 94.718,39.698 C94.47,39.581 94.2,39.479 93.932,39.44 C92.182,39.186 90.456,39.331 88.761,39.824 C88.161,39.999 87.725,40.335 87.592,40.999 C87.516,41.38 87.361,41.745 87.253,42.121 C86.81,43.684 86.496,45.277 85.78,46.766 C83.986,50.501 81.938,54.095 79.842,57.663 C79.615,58.048 79.376,58.426 79.09,58.893 C78.354,57.353 77.569,55.971 77.331,54.351 C77.062,52.519 76.85,50.69 77.306,48.872 C77.645,47.516 78.088,46.185 78.496,44.847 C78.689,44.211 78.6,43.877 78.024,43.542 C77.733,43.373 77.404,43.223 77.076,43.174 C75.261,42.905 73.473,43.046 71.722,43.612 C71.179,43.788 70.894,44.139 70.728,44.699 C70.24,46.351 69.824,48.043 69.139,49.614 C66.365,55.974 63.511,62.301 60.66,68.627 C60.065,69.948 59.368,71.223 58.697,72.509 C58.527,72.835 58.279,73.122 58.067,73.428 C57.897,73.227 57.831,73.089 57.832,72.951 C57.837,72.138 57.74,71.301 57.895,70.515 C58.364,68.137 58.904,65.772 59.473,63.416 C59.943,61.47 60.49,59.542 61.011,57.609 C61.186,56.962 61.189,56.357 60.724,55.813 C59.943,54.902 58.311,54.702 57.343,55.404 L56.915,55.646 L56.998,54.956 C57.202,53.477 57.243,52.003 56.837,50.546 C56.331,48.73 55.035,47.685 53.151,47.743 C52.273,47.77 51.351,47.92 50.538,48.24 C47.119,49.58 44.49,51.953 42.252,54.808 C42.049,55.067 41.781,55.303 41.495,55.462 C38.602,57.066 35.7,58.65 32.799,60.24 L29.57,62.009 C28.704,61.183 27.917,60.326 27.024,59.599 C24.297,57.375 21.526,55.206 18.78,53.007 C16.346,51.058 13.988,49.028 12.184,46.447 C10.842,44.527 9.977,42.426 9.894,40.052 C9.789,37.027 10.647,34.263 12.187,31.69 C14.157,28.398 16.844,25.756 19.798,23.363 C22.923,20.833 26.303,18.685 29.806,16.724 C34.707,13.981 39.748,11.553 45.153,9.95 C50.695,8.306 56.318,7.365 62.118,8.021 C64.398,8.279 66.612,8.801 68.645,9.916 C70.202,10.769 71.479,11.886 72.073,13.632 C72.659,15.35 72.641,17.091 72.235,18.836 C71.41,22.37 69.475,25.283 67.04,27.886 C63.046,32.153 58.174,35.058 52.689,36.977 C49.524,38.084 46.268,38.779 42.924,39.06 C40.195,39.289 37.523,39.047 34.939,38.098 C33.228,37.469 31.738,36.507 30.54,35.111 C30.326,34.861 30.052,34.59 29.653,34.824 C29.262,35.054 29.193,35.426 29.324,35.803 C29.543,36.429 29.745,37.081 30.086,37.641 C30.943,39.046 32.193,40.065 33.569,40.939 C36.212,42.62 39.166,43.185 42.229,43.316 C46.877,43.517 51.412,42.823 55.883,41.576 C62.266,39.796 67.816,36.652 72.267,31.692 C75.973,27.562 78.62,22.901 79.187,17.273 C79.464,14.526 79.169,11.835 77.883,9.329 C76.488,6.614 74.27,4.595 71.618,3.204 C67.756,1.179 63.588,5.68434189e-14 59.286,5.68434189e-14 L54.976,5.68434189e-14 C49.766,5.68434189e-14 44.729,1.493 39.833,3.274 C36.127,4.623 32.493,6.215 28.965,7.977 C21.282,11.816 14.127,16.445 8.25,22.81 C5.322,25.981 2.843,29.48 1.417,33.6 C1,34.806 0.604,36.099 0.306,37.346 L0.219,39.156 Z M28.145,73.359 C27.812,77.818 25.791,81.433 22.488,84.361 C20.63,86.007 18.499,87.179 16.017,87.591 C15.117,87.74 14.196,87.776 13.323,87.403 C12.078,86.871 11.799,85.766 11.775,84.589 C11.738,82.713 12.395,81.017 13.296,79.403 C14.472,77.299 16.196,75.695 18.037,74.197 C20.937,71.836 24.083,69.838 27.305,67.952 L27.548,67.852 C28.046,69.692 28.283,71.509 28.145,73.359 Z M53.303,53.98 C53.068,55.404 52.774,56.829 52.358,58.209 C50.92,62.986 49.073,67.615 47.076,72.182 C46.707,73.027 46.17,73.798 45.703,74.599 C45.631,74.723 45.524,74.83 45.42,74.933 C44.842,75.504 44.294,75.474 44.002,74.727 C43.662,73.859 43.453,72.93 43.273,72.011 C43.152,71.394 43.181,70.746 43.143,70.114 C43.182,65.62 44.553,61.536 46.879,57.734 C47.838,56.166 48.882,54.672 50.477,53.68 C50.967,53.375 51.517,53.13 52.072,52.974 C52.922,52.735 53.444,53.128 53.303,53.98 Z M70.467,75.848 L76.636,68.645 C76.893,71.32 72.346,76.66 70.467,75.848 Z M90.17,71.001 C89.734,71.251 89.259,71.431 88.812,71.662 C88.403,71.874 88.268,71.66 88.256,71.308 C88.248,71.069 88.283,70.819 88.349,70.587 C89.182,67.649 90.715,65.141 92.996,63.101 L93.156,63.019 C94.241,66.054 92.987,69.387 90.17,71.001 Z" id="Shape"></path>
            </g>
        </g>
    </g>
</svg>