<?xml version="1.0" encoding="UTF-8"?>
<svg width="132px" height="121px" viewBox="0 0 132 121" version="1.1" xmlns="http://www.w3.org/2000/svg" xmlns:xlink="http://www.w3.org/1999/xlink">
    <!-- Generator: Sketch 43.1 (39012) - http://www.bohemiancoding.com/sketch -->
    <title>sketch</title>
    <desc>Created with Sketch.</desc>
    <defs></defs>
    <g id="Page-1" stroke="none" stroke-width="1" fill="none" fill-rule="evenodd">
        <g id="Artboard" transform="translate(-325.000000, -224.000000)" fill-rule="nonzero" fill="#F4B400">
            <g id="sketch" transform="translate(325.000000, 224.000000)">
                <path d="M131.912786,38.5326731 C131.926929,38.4735385 131.948143,38.4167692 131.957571,38.3576346 C131.995286,38.0927115 131.988214,37.8254231 131.936357,37.5581346 C131.924571,37.4942692 131.896286,37.4375 131.877429,37.376 C131.839714,37.2459038 131.813786,37.1158077 131.754857,36.9928077 C131.714786,36.9100192 131.6535,36.8461538 131.606357,36.7704615 C131.580429,36.73025 131.578071,36.6853077 131.549786,36.6450962 L113.871214,11.8085577 C113.621357,11.4584808 113.284286,11.2337692 112.918929,11.0681923 C112.685571,10.5265192 112.268357,10.0723654 111.709714,9.83109615 L89.9061429,0.369557692 C89.6091429,0.241826923 89.2932857,0.175596154 88.9703571,0.175596154 L43.0060714,0.175596154 C42.6831429,0.175596154 42.3672857,0.241826923 42.0702857,0.369557692 L20.2667143,9.83109615 C19.7104286,10.0723654 19.2932143,10.5265192 19.0598571,11.0658269 C18.6968571,11.2314038 18.3574286,11.4584808 18.1075714,11.8085577 L0.429,36.6450962 C0.400714286,36.6829423 0.398357143,36.73025 0.372428571,36.7704615 C0.325285714,36.8461538 0.264,36.9100192 0.226285714,36.9928077 C0.167357143,37.1158077 0.141428571,37.2482692 0.103714286,37.376 C0.0872142857,37.4375 0.0589285714,37.4966346 0.0471428571,37.5581346 C-0.00707142857,37.8230577 -0.0117857143,38.0927115 0.0259285714,38.3576346 C0.0353571429,38.4191346 0.0565714286,38.4735385 0.0707142857,38.5326731 C0.117857143,38.7408269 0.190928571,38.9395192 0.292285714,39.1311154 C0.33,39.2020769 0.367714286,39.2683077 0.4125,39.3369038 C0.4455,39.3865769 0.464357143,39.4433462 0.502071429,39.4930192 L64.1449286,119.916096 C64.1637857,119.93975 64.1944286,119.949212 64.2132857,119.9705 C64.416,120.207038 64.6517143,120.401 64.9251429,120.540558 C64.9675714,120.561846 65.0123571,120.576038 65.0571429,120.594962 C65.3494286,120.722692 65.6629286,120.810212 65.9929286,120.810212 C66.3229286,120.810212 66.6364286,120.722692 66.9287143,120.594962 C66.9735,120.576038 67.0182857,120.561846 67.0607143,120.540558 C67.3317857,120.401 67.5698571,120.207038 67.7725714,119.9705 C67.7914286,119.949212 67.8220714,119.93975 67.8409286,119.916096 L131.483786,39.4930192 C131.5215,39.4457115 131.540357,39.3865769 131.575714,39.3369038 C131.6205,39.2706731 131.658214,39.2020769 131.695929,39.1311154 C131.792571,38.9395192 131.865643,38.7408269 131.912786,38.5326731 Z M43.4963571,4.904 L88.4847857,4.904 L105.383143,12.2366923 L88.3763571,21.4616923 L43.6047857,21.4616923 L26.598,12.2366923 L43.4963571,4.904 Z M37.0943571,64.0386154 L94.8867857,64.0386154 L65.9905714,113.749538 L37.0943571,64.0386154 Z M37.1886429,59.3078462 L45.4386429,26.1924615 L86.6132143,26.1924615 L96.1926429,59.3078462 L37.1886429,59.3078462 Z M6.60235714,36.1128846 L21.6715714,14.9426923 L40.7974286,25.3172692 L32.7831429,57.4888654 L6.72964286,36.1862115 C6.69192857,36.1530962 6.64242857,36.1412692 6.60235714,36.1128846 Z M30.657,61.853 C30.6829286,62.2030769 30.7725,62.5507885 30.9563571,62.8653846 L47.3785714,91.1199038 L12.4150714,46.9368846 L30.657,61.853 Z M84.6025714,91.1199038 L101.027143,62.8653846 C101.211,62.5507885 101.298214,62.2030769 101.3265,61.853 L119.570786,46.9368846 L84.6025714,91.1199038 Z M100.312929,56.5758269 L91.2567857,25.2770577 L110.309571,14.9426923 L125.378786,36.1128846 C125.338714,36.1412692 125.289214,36.1530962 125.249143,36.1862115 L100.312929,56.5758269 Z" id="Shape"></path>
            </g>
        </g>
    </g>
</svg>