<?xml version="1.0" encoding="UTF-8"?>
<svg width="126px" height="126px" viewBox="0 0 126 126" version="1.1" xmlns="http://www.w3.org/2000/svg" xmlns:xlink="http://www.w3.org/1999/xlink">
    <!-- Generator: Sketch 43.1 (39012) - http://www.bohemiancoding.com/sketch -->
    <title>wordpress-plain</title>
    <desc>Created with Sketch.</desc>
    <defs></defs>
    <g id="Page-1" stroke="none" stroke-width="1" fill="none" fill-rule="evenodd">
        <g id="Artboard" transform="translate(-643.000000, -387.000000)" fill="#F4B400">
            <g id="wordpress-plain" transform="translate(643.000000, 387.000000)">
                <path d="M63.094,125.224 C97.369,125.172 125.115,97.291 125.115,62.899 C125.115,29.066 97.497,1.202 64.502,0.613 C29.85,-0.005 0.894,28.113 0.885,62.21 C0.875,97.289 28.497,125.274 63.094,125.224 Z M62.993,3.63 C95.9,3.619 122.119,30.355 122.109,63.91 C122.098,95.589 95.184,122.09 63.017,122.097 C30.246,122.104 3.892,95.534 3.893,62.489 C3.895,30.296 30.659,3.641 62.993,3.63 Z M38.157,34.896 C38.695,36.689 37.189,37.313 35.588,37.438 C33.903,37.568 32.219,37.695 30.263,37.844 C36.719,57.078 43.078,76.027 49.588,95.417 C50.052,94.658 50.243,94.444 50.327,94.194 C53.901,83.512 57.495,72.837 60.978,62.125 C61.296,61.148 61.138,59.854 60.79,58.85 C58.947,53.53 56.739,48.326 55.123,42.942 C54.018,39.256 52.552,36.871 48.195,37.298 C47.453,37.371 46.547,35.774 45.716,34.949 C46.721,34.349 47.719,33.245 48.733,33.23 C57.605,33.095 66.48,33.095 75.351,33.238 C76.369,33.255 77.367,34.388 78.372,35.003 C77.492,35.807 76.733,37.013 75.704,37.324 C74.053,37.822 72.222,37.728 70.246,37.904 C76.709,57.129 83.039,75.961 89.595,95.464 C92.526,85.728 95.253,76.788 97.905,67.825 C100.271,59.824 98.861,52.352 94.583,45.305 C93.297,43.186 91.717,41.13 90.988,38.819 C90.16,36.19 89.472,33.197 89.911,30.56 C90.656,26.091 94.085,23.872 98.725,23.447 C73.333,-0.119 33.431,8.317 18.728,33.922 C24.388,33.661 29.792,33.318 35.2,33.244 C36.222,33.231 37.917,34.095 38.157,34.896 L38.157,34.896 Z M48.274,112.867 C48.156,113.212 48.149,113.596 48.056,114.169 C58.999,117.203 69.731,116.984 80.715,113.283 L63.935,67.323 C58.565,82.934 53.415,97.898 48.274,112.867 Z M39.818,110.789 L14.537,41.439 C3.132,63.717 11.808,97.707 39.818,110.789 Z M116.246,66.227 C117.048,55.693 113.414,41.108 110.276,39.102 C109.926,42.977 110.17,47.288 109.058,51.216 C106.441,60.471 103.241,69.565 100.159,78.684 C96.809,88.596 93.327,98.463 89.902,108.35 C105.994,98.811 114.837,84.732 116.246,66.227 L116.246,66.227 Z" id="Shape"></path>
            </g>
        </g>
    </g>
</svg>