<svg width="98" height="98" viewBox="0 0 98 98" fill="none" xmlns="http://www.w3.org/2000/svg">
<g clip-path="url(#clip0)">
<path d="M48.58 0C21.793 0 0 21.793 0 48.58C0 75.367 21.793 97.16 48.58 97.16C75.367 97.16 97.16 75.367 97.16 48.58C97.16 21.793 75.367 0 48.58 0ZM48.58 86.823C27.493 86.823 10.336 69.668 10.336 48.58C10.336 27.492 27.493 10.337 48.58 10.337C69.667 10.337 86.824 27.492 86.824 48.58C86.824 69.668 69.667 86.823 48.58 86.823Z" fill="white"/>
<path d="M73.898 47.08H52.066V20.83C52.066 18.621 50.275 16.83 48.066 16.83C45.857 16.83 44.066 18.621 44.066 20.83V51.08C44.066 53.289 45.857 55.08 48.066 55.08H73.898C76.107 55.08 77.898 53.289 77.898 51.08C77.898 48.871 76.107 47.08 73.898 47.08Z" fill="#F4B400"/>
</g>
<defs>
<clipPath id="clip0">
<rect width="97.16" height="97.16" fill="white"/>
</clipPath>
</defs>
</svg>
