<svg width="53" height="53" viewBox="0 0 53 53" fill="none" xmlns="http://www.w3.org/2000/svg">
<path d="M2 13.5H51C52.104 13.5 53 12.604 53 11.5C53 10.396 52.104 9.5 51 9.5H2C0.896 9.5 0 10.396 0 11.5C0 12.604 0.896 13.5 2 13.5Z" fill="#ffffff"/>
<path d="M2 28.5H51C52.104 28.5 53 27.604 53 26.5C53 25.396 52.104 24.5 51 24.5H2C0.896 24.5 0 25.396 0 26.5C0 27.604 0.896 28.5 2 28.5Z" fill="#ffffff"/>
<path d="M2 43.5H51C52.104 43.5 53 42.604 53 41.5C53 40.396 52.104 39.5 51 39.5H2C0.896 39.5 0 40.396 0 41.5C0 42.604 0.896 43.5 2 43.5Z" fill="#ffffff"/>
</svg>
